<svg width="630" height="560" viewBox="0 0 630 560" fill="none" xmlns="http://www.w3.org/2000/svg">
<g filter="url(#filter0_d_38_4971)">
<path d="M188.897 20.0122C237.41 19.7323 283.529 42.7293 314.779 82.7827C345.832 42.4555 392.08 19.3932 440.66 20.0122C531.73 20.0122 605.556 99.6977 605.556 197.996C605.556 366.446 333.182 530.921 322.14 537.278C317.684 540.492 311.873 540.492 307.417 537.278C296.374 530.921 24 368.829 24 197.996C24 99.6977 97.8276 20.0122 188.897 20.0122Z" fill="#DF231D"/>
</g>
<g opacity="0.2" filter="url(#filter1_f_38_4971)">
<circle cx="314.565" cy="257.391" r="117.2" fill="#FBD927"/>
</g>
<mask id="mask0_38_4971" style="mask-type:alpha" maskUnits="userSpaceOnUse" x="24" y="20" width="582" height="520">
<path d="M188.898 20.0121C237.411 19.7323 283.53 42.7292 314.779 82.7826C345.833 42.4555 392.08 19.3932 440.661 20.0121C531.73 20.0121 605.557 99.6977 605.557 197.995C605.557 366.446 333.183 530.921 322.14 537.278C317.685 540.492 311.874 540.492 307.417 537.278C296.374 530.921 24.0004 368.829 24.0004 197.995C24.0004 99.6977 97.8279 20.0121 188.898 20.0121Z" fill="#DF231D"/>
</mask>
<g mask="url(#mask0_38_4971)">
<path d="M8.28613 212.744C44.2136 218.857 163.822 232.206 181.763 252.004C210.841 272.42 248.253 336.092 270.652 348.306C278.128 353.394 283.904 356.311 289.349 358.508C300.466 362.996 308.708 363.245 312.466 363.573C318.066 364.063 362.356 356.924 368.998 363.473C372.837 368.359 370.884 372.292 370.166 373.58C369.904 374.054 369.433 374.083 369.433 374.083C369.433 374.083 404.157 363.881 412.928 371.163C418.84 376.069 415.228 380.755 415.228 380.755C415.228 380.755 434.019 384.96 428.662 397.155C426.913 401.13 417.918 402.661 417.918 402.661C420.797 411.867 399.588 417.799 391.609 419.434C366.597 424.564 261.245 438.329 216.631 414.982C170.92 391.057 142.148 344.01 118.103 331.426C95.8983 319.803 48.114 316.009 8.28613 314.085V212.744Z" fill="#FFFBDE"/>
<path d="M610.137 338.108C574.21 331.991 463.822 320.164 435.582 299.526C407.341 278.892 370.171 214.757 347.768 202.546C340.295 197.455 334.519 194.541 329.071 192.341C317.954 187.856 309.715 187.607 305.955 187.276C300.357 186.786 256.068 193.924 249.425 187.376C245.587 182.493 247.537 178.56 248.254 177.268C248.517 176.798 248.99 176.769 248.99 176.769C248.99 176.769 214.264 186.967 205.493 179.689C199.584 174.783 203.195 170.094 203.195 170.094C203.195 170.094 184.404 165.892 189.761 153.697C191.507 149.719 200.505 148.191 200.505 148.191C197.624 138.985 218.832 133.053 226.815 131.415C251.827 126.288 357.179 112.523 401.793 135.87C447.503 159.795 476.782 206.732 500.823 219.316C507.349 223.592 516.951 227.197 528.726 229.381C543.072 232.042 559.894 233.006 575.751 234.099C588.533 234.982 599.754 236.565 610.137 236.767V338.108Z" fill="#FFFBDE"/>
<path d="M162.197 350.486C161.46 351.249 161.48 352.466 162.242 353.206C179.291 369.699 222.578 400.562 229.178 403.638C232.046 404.975 238.864 406.72 247.492 408.93C257.473 411.487 268.785 414.385 275.93 417.208C283.786 420.31 290.928 422.89 296.578 422.89C298.888 422.89 300.948 422.458 302.704 421.455C305.345 419.95 307.266 417.325 307.574 413.561C307.824 410.51 304.891 396.859 293.599 384.902C284.114 374.859 258.301 367.535 254.196 365.098C250.091 362.658 230.898 332.364 230.898 332.364L162.197 350.486Z" fill="#FFFBDE"/>
<path d="M161.659 351.856L211.711 392.177C226.096 403.424 225.752 403.015 243.112 407.811L264.262 413.658C271.998 415.796 280.428 419.57 288.155 421.748C313.046 428.753 311.482 406.639 296.351 388.043C288.099 377.903 274.779 373.382 254.943 365.484L230.898 332.364" stroke="#57A03C" stroke-width="5.78289"/>
<path d="M456.765 198.996L406.712 158.675C392.324 147.428 392.668 147.837 375.308 143.038L354.158 137.194C346.425 135.056 337.995 131.278 330.269 129.104C305.377 122.099 306.941 144.213 322.072 162.809C330.324 172.949 343.644 177.466 363.48 185.364L387.525 218.485" stroke="#57A03C" stroke-width="5.78289"/>
<path d="M211.486 280.692C224.245 273.796 250.678 274.26 236.893 302.141C232.935 310.149 226.711 318.891 221.542 327.616C209.257 348.348 181.328 410.552 225.682 402.103" stroke="#FBD927" stroke-width="5.78289" stroke-linecap="round"/>
<path d="M259.428 367.263C270.383 334.6 241.263 355.159 238.791 395.779C237.963 409.339 242.38 416.073 252.273 410.55" stroke="#FBD927" stroke-width="5.78289" stroke-linecap="round"/>
<path d="M289.992 381.946L337.322 393.514C413.599 385.891 421.326 397.164 418.081 405.41C416.74 408.817 412.545 414.193 394.685 418.736C368.499 425.398 330.942 426.29 303.497 428.088C219.143 427.446 206.286 415.034 151.023 360.439C138.757 348.462 131.414 340.009 121.711 333.967C91.495 315.15 64.5202 319.718 8.28613 314.085" stroke="#57A03C" stroke-width="5.78289"/>
<path d="M328.431 168.906L281.101 157.338C204.823 164.96 197.097 153.688 200.342 145.442C201.682 142.035 205.878 136.655 223.738 132.112C249.921 125.454 287.477 124.561 314.926 122.764C399.277 123.403 412.133 135.818 467.4 190.413C479.666 202.39 487.009 210.843 496.711 216.885C526.928 235.702 553.902 231.134 610.136 236.767" stroke="#57A03C" stroke-width="5.78289"/>
<path d="M337.077 393.452C354.476 389.827 385.329 379.22 408.011 380.015C425.601 380.631 441.186 395.35 418.677 402.512" stroke="#57A03C" stroke-width="5.78289"/>
<path d="M281.344 157.396C263.945 161.024 233.092 171.632 210.411 170.837C192.82 170.217 177.235 155.501 199.745 148.34" stroke="#57A03C" stroke-width="5.78289"/>
<path d="M282.454 377.692L332.984 378.626L374.275 373.025L391.671 369.894C402.866 367.555 419.544 367.538 415.329 381.319" stroke="#57A03C" stroke-width="5.78289"/>
<path d="M335.969 173.157L285.439 172.226L244.148 177.826L226.752 180.955C215.557 183.297 198.879 183.314 203.094 169.533" stroke="#57A03C" stroke-width="5.78289"/>
<path d="M8.28613 212.744L89.0678 224.974C172.225 242.133 174.626 235.335 226.074 298.983L248.908 327.474C264.707 347.096 286.211 362.123 312.748 363.589C318.469 363.907 323.836 362.57 331.695 361.879L348.938 360.63C360.996 360.237 374.901 360.108 370.442 373.545" stroke="#57A03C" stroke-width="5.78289"/>
<path d="M610.137 338.108L529.355 325.878C446.195 308.719 443.794 315.514 392.346 251.865L379.438 235.024L369.515 223.378C353.715 203.756 332.211 188.729 305.675 187.259C299.954 186.945 294.587 188.278 286.728 188.973L269.484 190.222C257.423 190.611 243.522 190.741 247.98 177.307" stroke="#57A03C" stroke-width="5.78289"/>
<path d="M99.4799 224.782C174.664 218.247 110.125 331.458 143.333 339.918C150.783 341.816 129.877 364.219 156.449 366.071" stroke="#FBD927" stroke-width="5.78289" stroke-linecap="round"/>
<path d="M274.565 373.264C270.234 349.755 268.691 339.599 282.607 323.152C296.218 307.066 350.628 255.097 338.288 229.731C327.152 206.84 283.226 242.105 288.175 256.335C293.125 270.564 308.471 253.435 294.982 237.155C277.04 215.502 230.737 239.596 272.09 284.794C298.694 313.872 361.179 347.899 356.849 227.875C353.137 174.051 381.852 118.727 400.156 149.304" stroke="#FBD927" stroke-width="5.78289" stroke-linecap="round"/>
<path d="M417.479 162.914C429.485 160.662 465.736 154.253 462.023 180.856" stroke="#FBD927" stroke-width="5.78289" stroke-linecap="round"/>
<path d="M390.259 253.241C396.446 362.747 505.333 149.303 507.808 219.832" stroke="#FBD927" stroke-width="5.78289" stroke-linecap="round"/>
<path d="M403.867 271.183C403.867 323.007 421.837 318.548 441.433 296.885C451.508 285.748 474.645 245.573 492.868 224.621C508.898 206.19 523.118 195.271 520.178 224.621" stroke="#FBD927" stroke-width="5.78289" stroke-linecap="round"/>
<path d="M188.931 25.7949L188.914 25.795H188.898C101.43 25.795 29.7833 102.468 29.7833 197.995C29.7833 239.176 46.213 280.235 71.5715 319.02C96.9114 357.777 130.917 393.878 165.441 425.022C234.496 487.316 304.968 529.196 310.302 532.267L310.559 532.414L310.799 532.588C313.237 534.345 316.322 534.344 318.757 532.588L318.998 532.415L319.255 532.267C324.557 529.214 395.037 486.739 464.106 424.137C498.635 392.84 532.646 356.661 557.99 318.009C583.356 279.322 599.774 238.566 599.774 197.995C599.774 102.468 528.129 25.795 440.661 25.795H440.624L440.587 25.7946C393.926 25.2 349.366 47.3455 319.361 86.3109L314.809 92.2221L310.22 86.3399C280.013 47.6227 235.555 25.526 188.931 25.7949Z" stroke="#57A03C" stroke-width="11.5658"/>
</g>
<defs>
<filter id="filter0_d_38_4971" x="-176" y="-180" width="981.556" height="919.688" filterUnits="userSpaceOnUse" color-interpolation-filters="sRGB">
<feFlood flood-opacity="0" result="BackgroundImageFix"/>
<feColorMatrix in="SourceAlpha" type="matrix" values="0 0 0 0 0 0 0 0 0 0 0 0 0 0 0 0 0 0 127 0" result="hardAlpha"/>
<feOffset/>
<feGaussianBlur stdDeviation="100"/>
<feComposite in2="hardAlpha" operator="out"/>
<feColorMatrix type="matrix" values="0 0 0 0 1 0 0 0 0 0.984314 0 0 0 0 0.870588 0 0 0 0.3 0"/>
<feBlend mode="normal" in2="BackgroundImageFix" result="effect1_dropShadow_38_4971"/>
<feBlend mode="normal" in="SourceGraphic" in2="effect1_dropShadow_38_4971" result="shape"/>
</filter>
<filter id="filter1_f_38_4971" x="117.365" y="60.1913" width="394.4" height="394.4" filterUnits="userSpaceOnUse" color-interpolation-filters="sRGB">
<feFlood flood-opacity="0" result="BackgroundImageFix"/>
<feBlend mode="normal" in="SourceGraphic" in2="BackgroundImageFix" result="shape"/>
<feGaussianBlur stdDeviation="40" result="effect1_foregroundBlur_38_4971"/>
</filter>
</defs>
</svg>
