<svg width="630" height="560" viewBox="0 0 630 560" fill="none" xmlns="http://www.w3.org/2000/svg">
<g filter="url(#filter0_d_38_5062)">
<path d="M189.023 20.0122C237.573 19.7322 283.727 42.7429 315.001 82.8203C346.078 42.469 392.36 19.3928 440.978 20.0122C532.117 20.0122 606 99.7455 606 198.102C606 366.654 333.418 531.227 322.367 537.588C317.908 540.804 312.093 540.804 307.633 537.588C296.582 531.227 24 369.038 24 198.102C24 99.7455 97.8839 20.0122 189.023 20.0122Z" fill="#DF231D"/>
</g>
<g opacity="0.5" filter="url(#filter1_f_38_5062)">
<ellipse cx="314.722" cy="257.642" rx="171.631" ry="171.603" fill="#FBD927"/>
</g>
<mask id="mask0_38_5062" style="mask-type:alpha" maskUnits="userSpaceOnUse" x="24" y="20" width="583" height="520">
<path d="M189.024 20.0122C237.573 19.7322 283.728 42.7429 315.001 82.8203C346.078 42.469 392.361 19.3928 440.978 20.0122C532.118 20.0122 606 99.7454 606 198.102C606 366.654 333.418 531.227 322.367 537.588C317.909 540.804 312.093 540.804 307.633 537.588C296.582 531.227 24.0004 369.038 24.0004 198.102C24.0004 99.7454 97.8842 20.0122 189.024 20.0122Z" fill="#DF231D"/>
</mask>
<g mask="url(#mask0_38_5062)">
<path d="M8.27417 212.859C44.229 218.976 163.928 232.333 181.884 252.143C210.984 272.571 248.424 336.282 270.84 348.503C278.322 353.594 284.102 356.513 289.552 358.711C300.677 363.201 308.925 363.451 312.686 363.779C318.291 364.269 362.614 357.126 369.261 363.678C373.103 368.568 371.148 372.503 370.43 373.792C370.167 374.266 369.697 374.296 369.697 374.296C369.697 374.296 404.447 364.088 413.224 371.373C419.141 376.283 415.527 380.971 415.527 380.971C415.527 380.971 434.332 385.179 428.971 397.381C427.221 401.358 418.219 402.89 418.219 402.89C421.099 412.102 399.874 418.037 391.889 419.673C366.858 424.807 261.426 438.58 216.778 415.219C171.032 391.28 142.238 344.204 118.175 331.613C95.9531 319.982 48.1324 316.187 8.27417 314.261V212.859Z" fill="#FFFBDE"/>
<path d="M610.585 338.299C574.63 332.178 464.157 320.344 435.896 299.694C407.634 279.047 370.435 214.873 348.015 202.655C340.537 197.561 334.756 194.645 329.304 192.444C318.178 187.957 309.933 187.707 306.17 187.376C300.568 186.886 256.245 194.029 249.597 187.476C245.756 182.59 247.707 178.655 248.425 177.363C248.688 176.892 249.162 176.863 249.162 176.863C249.162 176.863 214.409 187.067 205.631 179.785C199.718 174.875 203.332 170.184 203.332 170.184C203.332 170.184 184.526 165.979 189.888 153.777C191.635 149.797 200.64 148.268 200.64 148.268C197.756 139.056 218.981 133.121 226.97 131.481C252 126.351 357.433 112.578 402.081 135.939C447.826 159.878 477.127 206.844 501.187 219.435C507.718 223.714 517.327 227.322 529.111 229.507C543.468 232.169 560.302 233.133 576.172 234.228C588.964 235.111 600.193 236.695 610.585 236.897V338.299Z" fill="#FFFBDE"/>
<path d="M162.302 350.685C161.565 351.448 161.584 352.665 162.348 353.405C179.409 369.909 222.729 400.79 229.334 403.868C232.205 405.205 239.028 406.952 247.662 409.163C257.651 411.722 268.972 414.621 276.122 417.446C283.984 420.55 291.132 423.131 296.785 423.131C299.098 423.131 301.16 422.699 302.916 421.696C305.56 420.19 307.482 417.563 307.791 413.797C308.041 410.745 305.105 397.085 293.804 385.12C284.312 375.072 258.479 367.743 254.372 365.305C250.264 362.863 231.055 332.551 231.055 332.551L162.302 350.685Z" fill="#FFFBDE"/>
<path d="M161.764 352.055L211.854 392.4C226.25 403.653 225.906 403.244 243.279 408.043L264.446 413.894C272.187 416.034 280.624 419.81 288.356 421.988C313.267 428.998 311.701 406.871 296.559 388.263C288.301 378.117 274.97 373.594 255.119 365.691L231.056 332.551" stroke="#57A03C" stroke-width="5.78289"/>
<path d="M457.095 199.103L407.004 158.758C392.605 147.505 392.95 147.914 375.576 143.112L354.41 137.264C346.671 135.124 338.235 131.345 330.503 129.17C305.592 122.16 307.157 144.287 322.3 162.895C330.558 173.041 343.888 177.561 363.739 185.463L387.802 218.604" stroke="#57A03C" stroke-width="5.78289"/>
<path d="M211.629 280.848C224.398 273.948 250.851 274.413 237.056 302.31C233.094 310.323 226.866 319.07 221.693 327.801C209.398 348.545 181.448 410.787 225.836 402.332" stroke="#FBD927" stroke-width="5.78289" stroke-linecap="round"/>
<path d="M259.608 367.471C270.571 334.788 241.429 355.36 238.955 396.004C238.127 409.573 242.546 416.31 252.447 410.784" stroke="#FBD927" stroke-width="5.78289" stroke-linecap="round"/>
<path d="M290.195 382.163L337.561 393.738C413.897 386.111 421.629 397.39 418.381 405.641C417.04 409.05 412.841 414.43 394.968 418.975C368.761 425.641 331.176 426.534 303.71 428.333C219.291 427.69 206.425 415.271 151.119 360.643C138.844 348.658 131.496 340.2 121.786 334.155C91.5465 315.326 64.5511 319.898 8.27417 314.261" stroke="#57A03C" stroke-width="5.78289"/>
<path d="M328.663 168.995L281.297 157.42C204.961 165.047 197.229 153.768 200.477 145.518C201.818 142.108 206.017 136.725 223.89 132.179C250.093 125.517 287.678 124.624 315.148 122.825C399.563 123.465 412.429 135.887 467.738 190.515C480.013 202.5 487.362 210.958 497.072 217.003C527.311 235.832 554.307 231.26 610.584 236.897" stroke="#57A03C" stroke-width="5.78289"/>
<path d="M337.316 393.676C354.728 390.049 385.604 379.435 408.304 380.231C425.908 380.848 441.505 395.575 418.978 402.741" stroke="#57A03C" stroke-width="5.78289"/>
<path d="M281.54 157.479C264.128 161.109 233.252 171.723 210.553 170.927C192.949 170.307 177.352 155.583 199.879 148.417" stroke="#57A03C" stroke-width="5.78289"/>
<path d="M282.651 377.906L333.219 378.841L374.542 373.237L391.951 370.104C403.155 367.763 419.846 367.747 415.628 381.536" stroke="#57A03C" stroke-width="5.78289"/>
<path d="M336.207 173.249L285.639 172.317L244.316 177.921L226.907 181.051C215.703 183.395 199.012 183.411 203.23 169.622" stroke="#57A03C" stroke-width="5.78289"/>
<path d="M8.27417 212.859L89.1174 225.097C172.338 242.266 174.741 235.464 226.228 299.151L249.08 327.658C264.891 347.292 286.411 362.328 312.968 363.795C318.693 364.113 324.065 362.776 331.93 362.084L349.186 360.834C361.253 360.441 375.168 360.311 370.707 373.757" stroke="#57A03C" stroke-width="5.78289"/>
<path d="M610.584 338.299L529.74 326.061C446.517 308.892 444.114 315.691 392.627 252.004L379.709 235.153L369.778 223.5C353.967 203.867 332.446 188.83 305.889 187.36C300.164 187.045 294.793 188.379 286.928 189.074L269.672 190.324C257.601 190.714 243.689 190.843 248.151 177.402" stroke="#57A03C" stroke-width="5.78289"/>
<path d="M99.5375 224.905C174.779 218.365 110.191 331.645 143.424 340.109C150.88 342.009 129.957 364.425 156.55 366.279" stroke="#FBD927" stroke-width="5.78289" stroke-linecap="round"/>
<path d="M274.756 373.476C270.422 349.952 268.877 339.79 282.805 323.333C296.426 307.238 350.878 255.238 338.528 229.857C327.383 206.952 283.424 242.238 288.377 256.476C293.33 270.714 308.688 253.575 295.189 237.286C277.233 215.619 230.894 239.727 272.279 284.952C298.903 314.048 361.437 348.095 357.102 228C353.388 174.143 382.124 118.786 400.443 149.381" stroke="#FBD927" stroke-width="5.78289" stroke-linecap="round"/>
<path d="M417.779 163C429.794 160.747 466.072 154.333 462.358 180.952" stroke="#FBD927" stroke-width="5.78289" stroke-linecap="round"/>
<path d="M390.538 253.381C396.73 362.952 505.7 149.381 508.177 219.952" stroke="#FBD927" stroke-width="5.78289" stroke-linecap="round"/>
<path d="M404.157 271.333C404.157 323.188 422.141 318.727 441.751 297.051C451.835 285.908 474.988 245.709 493.225 224.744C509.267 206.302 523.499 195.376 520.557 224.744" stroke="#FBD927" stroke-width="5.78289" stroke-linecap="round"/>
<path d="M189.057 25.795L189.04 25.7951H189.024C101.485 25.7951 29.7833 102.516 29.7833 198.102C29.7833 239.308 46.2258 280.393 71.6039 319.201C96.9633 357.981 130.995 394.104 165.546 425.267C234.654 487.598 305.179 529.504 310.518 532.577L310.775 532.724L311.015 532.897C313.456 534.657 316.546 534.657 318.985 532.898L319.225 532.724L319.482 532.577C324.789 529.522 395.323 487.022 464.445 424.382C499 393.066 533.038 356.864 558.401 318.189C583.786 279.479 600.217 238.697 600.217 198.102C600.217 102.516 528.517 25.7951 440.978 25.7951H440.941L440.905 25.7946C394.206 25.1997 349.611 47.3593 319.583 86.3489L315.031 92.2588L310.442 86.3779C280.211 47.6366 235.718 25.5258 189.057 25.795Z" stroke="#57A03C" stroke-width="11.5658"/>
</g>
<defs>
<filter id="filter0_d_38_5062" x="-176" y="-180" width="982" height="920" filterUnits="userSpaceOnUse" color-interpolation-filters="sRGB">
<feFlood flood-opacity="0" result="BackgroundImageFix"/>
<feColorMatrix in="SourceAlpha" type="matrix" values="0 0 0 0 0 0 0 0 0 0 0 0 0 0 0 0 0 0 127 0" result="hardAlpha"/>
<feOffset/>
<feGaussianBlur stdDeviation="100"/>
<feComposite in2="hardAlpha" operator="out"/>
<feColorMatrix type="matrix" values="0 0 0 0 1 0 0 0 0 0.984314 0 0 0 0 0.870588 0 0 0 0.3 0"/>
<feBlend mode="normal" in2="BackgroundImageFix" result="effect1_dropShadow_38_5062"/>
<feBlend mode="normal" in="SourceGraphic" in2="effect1_dropShadow_38_5062" result="shape"/>
</filter>
<filter id="filter1_f_38_5062" x="63.0908" y="6.03955" width="503.262" height="503.206" filterUnits="userSpaceOnUse" color-interpolation-filters="sRGB">
<feFlood flood-opacity="0" result="BackgroundImageFix"/>
<feBlend mode="normal" in="SourceGraphic" in2="BackgroundImageFix" result="shape"/>
<feGaussianBlur stdDeviation="40" result="effect1_foregroundBlur_38_5062"/>
</filter>
</defs>
</svg>
