<svg width="624" height="741" viewBox="0 0 624 741" fill="none" xmlns="http://www.w3.org/2000/svg">
<path d="M112.751 345.58C112.826 346.917 110.149 348.239 106.09 349.111C104.042 349.552 102.504 351.275 102.297 353.358C101.887 357.49 100.875 360.297 99.5375 360.372C98.2002 360.448 96.879 357.773 96.0054 353.715C95.5653 351.666 93.8444 350.129 91.7586 349.921C87.6243 349.511 84.8105 348.498 84.7347 347.161C84.6589 345.816 87.3388 344.494 91.3979 343.624C93.4499 343.186 94.9889 341.465 95.1965 339.377C95.6079 335.24 96.6185 332.434 97.9558 332.359C99.2932 332.283 100.614 334.958 101.487 339.021C101.928 341.073 103.653 342.609 105.74 342.815C109.868 343.222 112.673 344.235 112.751 345.58Z" fill="#FFFBDE"/>
<path d="M48.9587 486.383C49.1037 487.897 47.9945 489.236 46.4827 489.382C44.9709 489.525 43.6292 488.416 43.4849 486.905C43.3414 485.394 44.4498 484.051 45.9616 483.908C47.4727 483.763 48.8144 484.872 48.9587 486.383Z" fill="#FFFBDE"/>
<path d="M549.201 74.9113C549.223 74.9113 549.251 74.9113 549.279 74.9113C549.251 74.9113 549.229 74.9113 549.201 74.9113ZM550.037 74.8966C550.08 74.8966 550.115 74.8966 550.15 74.8966C550.115 74.8966 550.072 74.8966 550.037 74.8966ZM551.148 74.8687C551.17 74.8687 551.191 74.8687 551.212 74.8687C551.198 74.8687 551.17 74.8687 551.148 74.8687ZM551.375 74.8613C551.396 74.8613 551.432 74.8613 551.453 74.8613C551.432 74.8613 551.403 74.8613 551.375 74.8613ZM552.366 74.826C552.387 74.8186 552.402 74.8186 552.422 74.8186C552.408 74.8186 552.387 74.8186 552.366 74.826ZM553.095 74.7833C553.109 74.7833 553.124 74.7833 553.145 74.7833C553.13 74.7833 553.109 74.7833 553.095 74.7833ZM553.314 74.7693C553.329 74.7693 553.343 74.7693 553.364 74.7693C553.35 74.7693 553.329 74.7693 553.314 74.7693ZM553.81 74.7413C553.824 74.734 553.846 74.734 553.852 74.734C553.838 74.734 553.824 74.734 553.81 74.7413ZM554.638 74.6773C554.652 74.6773 554.66 74.6773 554.674 74.6773C554.667 74.6773 554.652 74.6773 554.638 74.6773ZM555.573 74.5993C555.581 74.5993 555.573 74.5993 555.581 74.5993H555.573ZM623.73 1.07606C623.73 1.04073 623.73 1.0054 623.73 0.962714C623.73 0.998043 623.73 1.04073 623.73 1.07606ZM623.737 0.325321C623.737 0.303976 623.737 0.289992 623.737 0.268647C623.737 0.283368 623.737 0.303976 623.737 0.325321Z" fill="#FFFBDE"/>
<path fill-rule="evenodd" clip-rule="evenodd" d="M289.249 661.479C282.041 661.479 274.781 661.206 267.474 660.647C237.8 658.377 209.555 651.591 183.356 641.01L183.334 641L183.254 640.968L182.855 640.806L182.775 640.774C182.572 640.692 182.369 640.609 182.166 640.526C176.139 638.06 170.222 635.392 164.422 632.532C169.622 635.098 174.922 637.51 180.306 639.758C180.925 640.017 181.545 640.272 182.166 640.526C182.369 640.608 182.572 640.692 182.775 640.774L182.855 640.806L183.254 640.968L183.334 641L183.356 641.01C184.041 641.286 184.727 641.559 185.414 641.831C185.843 636.492 186.895 631.123 188.571 625.738C189.758 621.923 191.256 618.101 193.067 614.279C209.37 579.849 223.319 546.56 233.406 518.008C235.083 513.256 235.444 503.052 234.169 492.495C232.842 481.53 229.752 470.191 224.533 464.187C221.475 460.667 218.294 459.693 215.71 459.693C214.947 459.693 214.233 459.779 213.591 459.909C212.434 460.145 211.26 460.251 210.076 460.251C200.345 460.251 190.01 452.885 182.238 447.339L180.974 446.435C173.317 440.991 166.195 438.319 158.769 438.319C153.818 438.319 148.728 439.508 143.257 441.855C140.505 443.039 137.75 443.52 135.096 443.52C125.816 443.52 117.744 437.651 115.028 435.434C113.909 434.523 112.777 433.573 111.629 432.606C106.966 428.691 101.765 424.326 95.9284 421.328C91.6256 419.118 86.9828 417.65 81.9536 417.65C79.337 417.65 76.6101 418.048 73.7801 418.949C73.5254 419.027 73.2472 419.115 72.9359 419.115C71.9967 419.115 70.755 418.31 68.9503 414.042C66.3455 407.88 66.0901 401.337 68.2666 396.541C68.7678 395.437 69.389 394.435 70.1287 393.542C71.7774 391.545 74.0134 390.073 76.8103 389.151C78.1807 388.7 79.588 388.253 81.0159 387.801C93.1006 383.984 106.8 379.656 112.655 366.683C119.468 351.598 126.868 335.899 134.024 320.718C141.679 304.476 149.596 287.683 157.011 271.186C161.542 261.112 161.745 251.879 157.6 244.481C154.521 238.982 149.892 236.11 144.514 236.11C141.959 236.11 139.233 236.762 136.423 238.087C133.869 239.292 131.513 239.901 129.238 239.901C125.851 239.901 122.644 238.546 119.24 235.786C118.822 235.446 118.396 235.069 117.959 234.685C116.173 233.108 113.371 230.637 110.15 230.637C108.482 230.637 106.699 231.302 104.889 233.096C100.784 237.167 101.733 242.264 102.5 246.359C102.708 247.468 102.903 248.516 103.006 249.516C103.242 251.752 103.905 254.008 104.549 256.189C106.2 261.806 107.044 265.391 103.71 268.263C99.9397 271.503 93.5628 276.003 87.1727 276.003C85.0802 276.003 82.984 275.517 80.9798 274.349C80.1776 273.882 79.3701 273.422 78.5679 272.963C68.6184 267.295 63.191 263.579 67.3193 253.097C70.1368 245.941 70.8662 239.81 69.5009 234.539C74.4322 227.908 79.6535 221.495 85.1295 215.339C91.1192 215.227 97.1148 212.503 103.196 209.4L103.733 209.127L104.099 208.644C104.782 207.738 106.797 207.341 108.742 206.957C113.138 206.087 120.497 204.633 118.978 193.925C118.487 190.477 117.474 187.683 115.947 185.574C124.422 178.546 133.323 172 142.572 165.997C144.992 168.835 147.975 171.073 150.87 172.945C160.615 179.244 172.982 190.446 176.567 208.039C178.417 217.109 184.446 223.011 190.278 228.721C191.178 229.603 192.08 230.481 192.955 231.369C198.148 236.621 202.6 239.135 206.781 239.135C207.464 239.135 208.141 239.068 208.812 238.935C214.158 237.873 218.605 232.582 222.806 222.287C228.249 208.951 234.504 195.451 240.556 182.399C244.098 174.76 247.442 167.544 250.643 160.347C256.151 147.954 258.539 135.745 257.787 123.23C270.133 121.559 282.721 120.703 295.47 120.703C301.247 120.703 307.05 120.88 312.892 121.234C314.331 121.312 315.786 121.425 317.237 121.531C318.688 121.645 320.158 121.758 321.606 121.899C324.253 122.147 326.888 122.423 329.507 122.742C327.15 130.474 325.888 137.604 325.215 142.779C324.301 149.823 327.122 158.168 334.148 159.762C334.74 159.895 335.295 159.96 335.815 159.96C340.463 159.957 342.326 154.959 343.607 151.534C343.955 150.602 344.284 149.722 344.635 148.961C347.021 143.762 349.368 138.528 351.713 133.297C352.671 131.16 353.627 129.025 354.588 126.89C357.49 127.506 360.38 128.169 363.244 128.872C363.065 129.697 362.792 130.623 362.418 131.671C360.778 136.275 359.557 141.639 358.264 147.318C354.058 165.802 349.706 184.918 330.546 185.458C327.82 185.536 325.229 188.896 324.478 191.185C317.19 213.453 306.738 236.998 291.589 265.28C285.876 275.939 292.377 288.45 301.748 295.303C303.652 296.695 305.47 297.396 307.173 297.396C307.819 297.396 308.45 297.294 309.063 297.092C313.098 295.757 314.676 290.671 316.203 285.748C316.764 283.944 317.294 282.238 317.899 280.846C322.816 269.532 327.355 261.608 333.516 259.72C334.521 259.411 335.599 259.258 336.755 259.258C340.838 259.258 345.887 261.193 352.054 265.11C356.677 268.05 361.637 269.468 366.483 269.468C374.939 269.465 383.038 265.142 388.329 257.035C392.48 250.679 399.863 246.998 408.096 246.998C409.186 246.998 410.296 247.062 411.415 247.194C421.217 248.356 429.193 254.372 432.228 262.888C432.529 263.737 432.563 265.812 431.764 269.091C428.539 282.318 412.3 299.208 396.306 305.971C392.558 307.559 387.835 309 383.059 309C379.771 309 376.458 308.317 373.417 306.53C366.296 302.343 358.542 300.327 350.942 300.327C337.635 300.327 324.805 306.504 316.692 317.996C296.732 346.27 289.446 373.196 293.785 402.859C297.526 422.031 314.082 442.115 333.145 450.616C339.59 453.487 345.931 454.923 352.015 454.923C358.786 454.923 365.243 453.145 371.174 449.596C373.695 448.09 375.972 447.333 377.987 447.333C379.184 447.333 380.285 447.599 381.29 448.133C384.93 450.065 387.433 455.65 387.823 462.71C388.127 468.189 388.542 473.86 389.347 479.416C391.258 492.615 395.377 505.179 405.437 513.049C415.792 521.147 422.115 533.883 422.349 547.118L422.385 547.517C422.681 549.237 422.974 550.963 423.265 552.698C424.582 560.49 425.945 568.549 427.713 576.188C429.674 584.658 435.64 592.632 444.237 595.236C446.132 595.81 448.155 596.122 450.292 596.122C451.357 596.122 452.45 596.047 453.568 595.883C467.694 593.561 479.955 583.716 488.094 568.157C491.585 561.485 494.108 554.126 495.55 546.715C497.047 538.994 497.372 531.212 496.383 524.084C494.368 508.933 492.122 496.475 489.315 484.872C482.414 456.378 482.593 433.243 490.029 413.439C491.933 408.376 494.309 403.533 497.161 398.872C505.816 384.737 502.313 366.688 489.017 356.889C473.476 345.441 458.437 333.622 447.073 324.605C446.403 324.074 445.709 323.621 445.036 323.182C442.077 321.247 440.591 320.274 443.394 314.53C444.997 311.243 446.008 310.942 446.117 310.918C446.146 310.914 446.174 310.911 446.205 310.911C446.87 310.911 448.321 312.116 449.3 312.933C449.832 313.377 450.37 313.824 450.915 314.235C454.68 317.067 458.489 320.009 462.171 322.852C466.251 326.002 470.47 329.26 474.594 332.342C478.69 335.661 483.239 337.34 488.147 337.34C488.931 337.34 489.723 337.296 490.523 337.21C498.102 336.409 506.187 331.511 512.153 324.116C516.892 318.243 518.992 311.929 518.235 305.853C517.516 300.104 514.226 294.885 508.718 290.756C507.67 289.972 506.616 289.188 505.556 288.404C500.55 284.694 495.373 280.856 490.73 276.426C489.601 275.346 488.225 274.648 486.892 273.971C483.691 272.342 482.23 271.597 483.704 267.245C484.581 264.649 485.535 263.553 486.132 263.395C486.218 263.371 486.308 263.36 486.407 263.36C487.879 263.36 490.668 265.83 492.208 267.195C496.718 271.194 501.625 273.313 506.283 273.313C507.14 273.313 507.987 273.243 508.823 273.098C511.341 272.664 513.6 272.446 515.699 272.446C524.232 272.446 530.066 276.034 539.581 283.154C544.005 287.415 548.225 288.64 551.609 288.64C552.268 288.64 552.884 288.596 553.471 288.519C556.622 295.625 559.482 302.874 562.045 310.264C561.303 307.366 560.528 304.482 559.704 301.617C559.451 300.737 559.193 299.859 558.93 298.983C559.192 299.859 559.45 300.737 559.704 301.617C568.784 333.064 572.499 366.633 569.854 401.194C569.642 404.033 569.387 406.867 569.09 409.682C553.811 553.324 432.296 661.479 289.249 661.479ZM26.6704 422.166C28.7651 424.035 30.8414 425.904 32.9045 427.763C46.9669 440.43 60.0437 446.801 71.9179 446.801C75.1564 446.801 78.3081 446.326 81.3618 445.376C82.0183 445.174 82.6756 445.08 83.3329 445.08C89.3042 445.08 95.2431 452.898 99.3119 458.257C101.578 461.246 100.453 463.568 97.3504 468.15C96.1646 469.903 94.9362 471.715 94.2201 473.655C86.3101 495.011 89.8776 540.671 110.912 557.649C124.412 567.643 131.838 582.166 136.203 597.093C138.405 604.625 139.828 612.261 140.858 619.472C68.201 574.509 18.1834 497.709 8.80205 410.04C8.73728 409.436 8.67472 408.831 8.61363 408.226C8.54297 407.521 8.47084 406.817 8.40534 406.111C8.29861 404.956 8.19778 403.799 8.10504 402.641C8.07192 402.23 8.03953 401.819 8.00862 401.409C7.91883 400.23 7.83713 399.05 7.76279 397.868C7.73556 397.437 7.70906 397.007 7.68404 396.576C7.61338 395.369 7.54934 394.161 7.49414 392.95C7.47795 392.601 7.46249 392.252 7.44777 391.902C7.39257 390.58 7.34547 389.257 7.30867 387.931C7.30204 387.693 7.29542 387.454 7.28953 387.216C7.25346 385.796 7.22697 384.374 7.21225 382.949L7.20783 382.482C7.19532 380.985 7.19311 379.485 7.20415 377.983L7.20636 377.694C7.21961 376.139 7.24463 374.582 7.28291 373.022L7.28585 372.884C7.32633 371.273 7.3808 369.66 7.44851 368.044V368.041L7.44925 368.038V368.038V368.032V368.031V368.029V368.028V368.026V368.024V368.022V368.021L7.44998 368.019V368.018L7.45734 367.843C7.4544 367.9 7.45219 367.96 7.44998 368.018V368.019L7.44925 368.021V368.022V368.024V368.026V368.028V368.029V368.031V368.032V368.038V368.038L7.44851 368.041V368.044C7.3808 369.66 7.32633 371.273 7.28585 372.884L7.28291 373.022C7.24463 374.582 7.21887 376.139 7.20636 377.694L7.20415 377.983C7.19385 379.485 7.19458 380.985 7.20783 382.482L7.21225 382.949C7.2277 384.374 7.25273 385.796 7.28953 387.216C7.29542 387.454 7.30204 387.693 7.30867 387.931C7.34547 389.257 7.39184 390.58 7.44777 391.902C7.46249 392.252 7.47795 392.601 7.49414 392.95C7.53683 393.869 7.5832 394.786 7.63399 395.702C7.65018 395.993 7.66711 396.285 7.68404 396.576C7.70906 397.007 7.73556 397.437 7.76279 397.868C7.80327 398.507 7.84522 399.146 7.88939 399.781C7.92766 400.325 7.9674 400.867 8.00862 401.409C8.03953 401.819 8.07192 402.23 8.10504 402.641C8.19778 403.799 8.29788 404.954 8.40534 406.111C8.42815 406.352 8.45097 406.592 8.47378 406.834C8.47452 406.834 8.47599 406.834 8.47673 406.836C8.52089 407.3 8.56726 407.763 8.61363 408.226C8.67472 408.831 8.73728 409.436 8.80205 410.04C11.0889 431.341 15.7773 452.003 22.5995 471.723C17.6689 452.273 14.7748 432.067 14.1441 411.367C18.4255 414.893 22.5848 418.526 26.6704 422.166ZM512.653 453.28C511.247 453.28 509.729 453.74 508.106 454.656C494.316 462.438 496.492 481.67 497.206 487.99L497.25 488.387L497.411 488.753C498.003 490.095 498.338 492.126 498.662 494.087C499.328 498.111 500.016 502.274 503.292 503.873C504.073 504.252 504.907 504.444 505.803 504.444C507.221 504.444 508.794 503.966 510.557 503.008C517.308 499.329 524.636 490.53 521.173 469.493C521.039 468.696 520.925 467.818 520.798 466.901C520.111 461.742 519.333 455.897 515.327 453.903C514.491 453.487 513.598 453.28 512.653 453.28ZM163.692 632.172L163.687 632.171L163.682 632.169C163.686 632.171 163.686 632.171 163.687 632.171C163.688 632.171 163.688 632.171 163.692 632.172ZM7.46838 367.579L7.46912 367.577V367.576V367.574V367.573V367.571V367.57V367.569L7.47574 367.415C7.47353 367.466 7.47133 367.519 7.46912 367.569V367.57V367.571V367.573V367.574V367.576V367.577L7.46838 367.579ZM7.48973 367.105V367.103V367.101V367.098L7.49046 367.097V367.096V367.095V367.094V367.088V367.087C7.49193 367.051 7.49341 367.016 7.49561 366.978L7.49046 367.087V367.088V367.094V367.095V367.096V367.097L7.48973 367.098V367.101V367.103V367.105ZM306.077 98.5145C300.234 98.1539 294.434 97.9765 288.657 97.9839C294.426 97.9839 300.242 98.1605 306.077 98.5145Z" fill="#FFFBDE"/>
<path d="M424.98 547.071C424.734 533.115 417.991 519.522 407.059 510.975C393.027 500.002 391.319 478.188 390.452 462.566C389.756 449.965 382.644 439.664 369.82 447.337C340.357 464.965 302.119 431.796 296.367 402.355C291.782 370.974 301.168 344.549 318.843 319.516C331.108 302.138 354.402 298.407 372.082 308.8C392.916 321.05 429.168 290.853 434.323 269.715C434.909 267.305 435.424 264.026 434.712 262.01C427.454 241.659 397.548 238.099 386.124 255.597C378.724 266.926 364.967 270.198 353.465 262.889C332.324 249.454 324.635 258.736 315.48 279.797C312.528 286.587 311.536 299.198 303.302 293.176C295.21 287.259 288.728 276.19 293.908 266.524C306.541 242.947 318.536 217.808 326.98 192.006C327.531 190.321 329.424 188.124 330.62 188.093C358.203 187.315 358.032 151.815 364.9 132.556C367.319 125.767 366.117 122.487 361.854 119.4C357.503 116.257 355.136 119.266 352.997 124.009C349.409 131.957 345.873 139.949 342.24 147.863C340.373 151.923 339.327 158.236 334.728 157.192C329.343 155.971 327.048 149.125 327.829 143.119C329.589 129.546 333.73 114.899 341.087 102.854C441.549 121.646 521.698 193.06 554.554 285.622C550.437 286.705 545.826 285.567 541.286 281.147C528.868 271.839 522.1 268.133 508.373 270.501C503.511 271.342 498.303 269.081 493.957 265.225C489.539 261.31 484.406 256.945 481.208 266.402C478.193 275.308 485.744 275.31 488.909 278.332C494.652 283.814 501.035 288.29 507.136 292.865C517.855 300.898 518.248 312.365 510.105 322.463C502.161 332.308 488.047 339.848 476.248 330.296C468.266 324.325 460.446 318.108 452.499 312.128C448.73 309.296 445.345 304.523 441.024 313.375C436.446 322.762 441.951 323.906 445.433 326.669C459.288 337.66 473.221 348.524 487.452 359.011C499.7 368.034 502.756 384.69 494.915 397.496C478.741 423.911 479.089 453.844 486.751 485.493C489.888 498.441 492.007 511.162 493.769 524.432C497.423 550.766 482.296 588.49 453.139 593.283C441.551 594.961 432.754 586.307 430.277 575.594C428.14 566.358 426.611 556.557 424.98 547.071Z" fill="#57A03C"/>
<path d="M53.1847 225.421C57.2969 224.492 61.2029 225.045 64.4547 229.767C68.9738 236.329 68.0347 244.09 64.8676 252.131C59.2473 266.399 69.8195 270.888 79.6498 276.624C87.9322 281.456 97.8074 276.816 105.428 270.26C112.127 264.493 106.363 256.262 105.625 249.241C105.112 244.331 102.723 238.951 106.742 234.966C110.894 230.85 114.484 235.321 117.58 237.829C123.78 242.861 129.962 244.048 137.547 240.467C144.186 237.336 150.984 238.063 155.302 245.769C159.576 253.398 158.143 262.247 154.608 270.107C140.218 302.108 124.312 334.466 110.255 365.599C104.221 378.965 88.5659 382.499 75.9837 386.651C63.3587 390.816 62.0126 404.399 66.5229 415.067C68.3821 419.466 70.5725 422.729 74.5764 421.457C90.5105 416.394 102.567 428.665 113.363 437.475C121.651 444.242 133.377 448.965 144.298 444.278C157.364 438.667 167.623 440.176 179.447 448.583C188.714 455.175 201.733 464.998 214.113 462.493C230.258 459.224 234.999 505.581 230.92 517.133C219.752 548.743 205.272 582.348 190.684 613.15C186.39 622.221 183.714 631.463 182.857 640.788C169.239 635.258 156.179 628.704 143.76 621.224C140.47 596.828 133.506 571.101 112.48 555.531C92.9938 539.803 88.7993 495.866 96.6879 474.571C98.7524 469.001 106.579 463.477 101.409 456.666C96.0211 449.567 88.7993 440.305 80.5794 442.86C63.7334 448.1 46.5503 436.51 34.6665 425.807C26.0808 418.073 17.4267 410.302 8.17566 403.289C6.9546 388.532 6.86775 373.491 8.03214 358.255C11.788 309.122 27.9459 263.907 53.1847 225.421Z" fill="#57A03C"/>
<path d="M250.371 100.609C257.479 120.726 257.011 139.534 248.237 159.278C239.431 179.081 228.939 200.284 220.368 221.29C213.181 238.902 205.804 240.62 194.829 229.518C188.507 223.126 181.112 217.144 179.149 207.513C175.929 191.718 165.501 179.268 152.301 170.733C144.992 166.005 137.282 159.212 140.99 145.212C141.528 143.182 142.084 141.063 142.697 138.918C175.051 119.234 211.563 105.935 250.371 100.609Z" fill="#57A03C"/>
<path d="M101.998 207.056C92.8895 211.704 85.1186 214.896 77.3131 210.915C74.0187 209.234 71.3801 206.243 71.0246 202.031C71.0003 201.742 70.9893 201.465 70.9893 201.2C72.7653 199.036 74.5634 196.89 76.4012 194.782C77.0577 194.505 77.7054 194.239 78.2994 193.943C83.5737 191.318 88.9923 189.225 94.3284 186.741C103.821 182.321 114.394 180.373 116.367 194.296C118.185 207.108 105.607 202.28 101.998 207.056Z" fill="#57A03C"/>
<path d="M499.823 487.694C498.6 476.883 498.794 462.934 509.399 456.949C517.331 452.473 517.542 463.656 518.575 469.921C520.345 480.689 520.33 494.684 509.295 500.695C500.451 505.509 502.339 493.422 499.823 487.694Z" fill="#57A03C"/>
<path d="M304.896 179.576C306.542 188.709 309.647 202.377 299.474 207.65C293.087 210.96 292.963 201.162 292.389 195.987C291.365 186.795 287.409 172.745 296.793 166.712C304.875 161.513 301.547 176.843 304.896 179.576Z" fill="#57A03C"/>
<path d="M286.82 201.318C287.758 207.349 286.695 211.986 281.596 213.876C278.124 215.162 275.639 213.897 274.782 209.208C273.711 203.356 275.211 198.378 279.412 195.548C283.91 192.518 285.721 196.446 286.82 201.318Z" fill="#57A03C"/>
<path d="M427.611 546.822C427.897 548.478 428.177 550.148 428.46 551.82C429.763 559.537 431.113 567.516 432.845 575.002C434.845 583.651 441.923 592.235 452.763 590.677C481.115 586.016 494.456 548.541 491.161 524.793C489.143 509.611 486.996 497.685 484.191 486.113C475.177 448.882 477.872 420.286 492.669 396.121C499.885 384.338 496.969 369.296 485.89 361.133C470.282 349.633 455.197 337.777 443.798 328.734C443.315 328.349 442.751 327.98 442.154 327.591C438.836 325.42 433.82 322.14 438.659 312.22C440.55 308.34 442.569 306.289 445.013 305.767C448.132 305.102 450.647 307.198 452.672 308.886C453.137 309.276 453.605 309.665 454.082 310.023C457.876 312.876 461.696 315.828 465.39 318.682C469.456 321.822 473.657 325.068 477.828 328.185C481.533 331.185 485.591 332.444 489.966 331.971C496.185 331.314 502.946 327.139 508.053 320.809C511.873 316.076 513.584 311.129 513.007 306.504C512.47 302.21 509.895 298.222 505.558 294.973C504.519 294.192 503.471 293.416 502.419 292.637C497.284 288.83 491.971 284.894 487.092 280.236C486.521 279.69 485.542 279.194 484.503 278.664C481.239 277.005 475.776 274.228 478.713 265.554C480.123 261.385 482.109 259.012 484.779 258.303C488.889 257.215 492.669 260.562 495.705 263.254C499.76 266.854 504.213 268.546 507.926 267.908C522.638 265.37 530.214 269.556 542.865 279.039L543.127 279.26C546.618 282.66 550.164 283.959 553.669 283.131C554.273 284.784 554.851 286.449 555.426 288.116C555.27 288.159 555.114 288.2 554.957 288.239C551.276 289.134 545.62 288.97 539.58 283.154C527.722 274.285 521.583 270.896 508.822 273.098C503.442 274.03 497.546 271.929 492.207 267.196C490.566 265.739 487.502 263.028 486.131 263.395C485.534 263.553 484.581 264.649 483.703 267.245C482.229 271.597 483.69 272.342 486.892 273.971C488.224 274.648 489.6 275.346 490.729 276.426C495.372 280.856 500.549 284.694 505.556 288.404C506.615 289.189 507.669 289.973 508.718 290.757C514.225 294.885 517.515 300.104 518.234 305.853C518.992 311.929 516.891 318.243 512.153 324.117C506.187 331.511 498.101 336.409 490.523 337.21C484.703 337.835 479.344 336.19 474.593 332.342C470.469 329.261 466.25 326.002 462.17 322.852C458.488 320.009 454.679 317.067 450.914 314.235C450.369 313.824 449.832 313.377 449.3 312.934C448.274 312.08 446.735 310.797 446.116 310.918C446.007 310.942 444.997 311.244 443.393 314.531C440.59 320.274 442.076 321.248 445.036 323.182C445.709 323.621 446.402 324.075 447.072 324.605C458.437 333.622 473.476 345.441 489.016 356.889C502.312 366.689 505.816 384.737 497.161 398.873C483.143 421.764 480.65 449.092 489.315 484.872C492.121 496.475 494.368 508.933 496.382 524.084C498.319 538.052 495.222 554.531 488.094 568.157C479.954 583.716 467.693 593.562 453.568 595.883C452.449 596.047 451.356 596.122 450.291 596.122C438.465 596.122 430.104 586.528 427.712 576.189C425.944 568.549 424.581 560.49 423.264 552.698C422.974 550.964 422.68 549.237 422.384 547.518L422.348 547.119C422.114 533.884 415.792 521.148 405.437 513.049C391.138 501.866 388.847 481.203 387.822 462.711C387.433 455.651 384.93 450.066 381.289 448.134C378.595 446.7 375.19 447.194 371.173 449.596C359.912 456.334 346.763 456.687 333.145 450.616C314.081 442.115 297.526 422.031 293.785 402.859C289.446 373.196 296.732 346.27 316.691 317.997C329.437 299.941 353.826 295.01 373.417 306.53C380.876 310.914 389.98 308.649 396.305 305.972C412.299 299.208 428.538 282.318 431.763 269.092C432.563 265.812 432.529 263.737 432.228 262.889C429.192 254.372 421.216 248.356 411.414 247.194C401.88 246.068 393.031 249.835 388.328 257.036C380.007 269.782 364.75 273.178 352.053 265.111C344.144 260.084 338.075 258.325 333.516 259.721C327.354 261.609 322.815 269.533 317.898 280.846C317.293 282.238 316.763 283.944 316.202 285.748C314.676 290.671 313.097 295.758 309.062 297.092C306.834 297.827 304.376 297.225 301.748 295.304C292.377 288.451 285.875 275.939 291.588 265.28C306.738 236.998 317.189 213.453 324.477 191.186C325.228 188.896 327.82 185.536 330.545 185.458C349.705 184.918 354.057 165.802 358.264 147.318C359.556 141.639 360.777 136.275 362.418 131.671C364.506 125.816 363.456 123.811 360.312 121.538C359.489 120.944 358.796 120.668 358.4 120.767C357.954 120.887 356.97 121.602 355.4 125.092C354.166 127.823 352.938 130.56 351.712 133.297C349.367 138.529 347.021 143.762 344.634 148.962C344.284 149.723 343.955 150.602 343.606 151.534C342.183 155.341 340.036 161.098 334.147 159.763C327.121 158.168 324.301 149.823 325.215 142.779C326.465 133.164 329.753 116.782 338.317 102.339C340.169 102.667 342.011 103.022 343.85 103.386C335.011 117.377 331.68 133.911 330.442 143.457C329.832 148.159 331.52 153.765 335.31 154.625C336.409 154.874 337.13 153.809 338.673 149.689C339.039 148.709 339.418 147.697 339.847 146.762C342.227 141.579 344.567 136.361 346.906 131.142C348.134 128.399 349.363 125.661 350.596 122.926C351.998 119.818 353.862 116.526 357.045 115.677C359.061 115.139 361.197 115.677 363.399 117.269C368.904 121.248 370.057 125.936 367.38 133.442C365.845 137.75 364.657 142.966 363.402 148.486C359.203 166.926 353.984 189.853 331.021 190.713C330.553 191.054 329.732 192.066 329.486 192.824C322.099 215.393 311.531 239.208 296.23 267.767C291.941 275.775 297.323 285.543 304.859 291.052C305.967 291.863 306.92 292.253 307.408 292.089C308.868 291.608 310.254 287.143 311.171 284.188C311.749 282.326 312.347 280.401 313.066 278.745C318.722 265.734 323.857 257.171 331.974 254.683C338.181 252.78 345.46 254.681 354.877 260.666C365.031 267.116 377.241 264.379 383.917 254.156C389.722 245.268 400.488 240.592 412.034 241.964C423.836 243.363 433.477 250.706 437.192 261.126C437.952 263.278 437.849 266.375 436.883 270.338C433.253 285.214 415.97 303.376 398.356 310.825C387.69 315.336 378.142 315.421 370.745 311.072C353.535 300.953 332.147 305.235 320.993 321.035C301.862 348.135 294.864 373.853 298.974 401.973C302.395 419.466 317.675 437.95 335.289 445.802C343.645 449.528 356.184 452.425 368.468 445.076C375.579 440.822 380.711 441.861 383.761 443.481C389.099 446.316 392.584 453.394 393.082 462.42C394.043 479.755 396.121 499.075 408.682 508.9C420.224 517.926 427.289 532.089 427.611 546.822Z" fill="#57A03C"/>
<path d="M83.4439 439.782C91.903 439.782 98.7657 448.827 103.507 455.072C108.295 461.381 104.491 467 101.716 471.103C100.656 472.668 99.6562 474.143 99.1609 475.485C91.7396 495.52 95.4941 538.435 114.134 553.483C137.277 570.614 143.672 599.594 146.642 622.942C144.698 621.802 142.769 620.641 140.856 619.457C137.782 597.96 131.218 572.684 110.912 557.65C89.8775 540.672 86.31 495.012 94.22 473.655C94.9362 471.715 96.1646 469.903 97.3503 468.151C100.453 463.568 101.578 461.247 99.3118 458.258C94.7963 452.309 87.9749 443.328 81.3617 445.377C67.1073 449.811 50.8015 443.883 32.9044 427.764C25.0717 420.708 17.0535 413.485 8.48992 406.846C8.26543 404.503 8.07112 402.152 7.90552 399.794C18.0795 407.32 27.3769 415.693 36.4307 423.849C52.8506 438.639 67.4421 444.187 79.7984 440.347C81.0423 439.96 82.2597 439.782 83.4439 439.782ZM180.309 639.74C181.254 630.541 183.922 621.28 188.305 612.023C204.532 577.754 218.408 544.639 228.438 516.256C231.399 507.874 229.054 477.42 220.558 467.644C218.06 464.77 215.978 464.801 214.638 465.074C201.684 467.701 188.679 458.408 179.18 451.626L177.921 450.731C166.696 442.749 157.258 441.578 145.337 446.699C135.146 451.074 122.569 448.389 111.697 439.516C110.559 438.589 109.409 437.624 108.24 436.645C98.4212 428.398 88.2686 419.871 75.3742 423.969C68.3651 426.193 65.2657 418.856 64.0977 416.094C60.9298 408.6 60.6951 400.478 63.4698 394.363C65.6897 389.474 69.7319 385.94 75.1586 384.149C76.5504 383.689 77.979 383.237 79.4304 382.78C90.9999 379.124 102.967 375.341 107.854 364.516C114.685 349.389 122.093 333.672 129.257 318.472C136.904 302.252 144.81 285.478 152.204 269.027C154.869 263.107 157.167 254.489 153.004 247.058C149.777 241.301 144.956 239.887 138.672 242.851C130.439 246.735 123.21 245.79 115.922 239.876C115.448 239.494 114.968 239.071 114.475 238.638C110.884 235.469 110.04 235.407 108.596 236.838C106.576 238.842 106.933 241.393 107.677 245.391C107.895 246.554 108.119 247.756 108.246 248.966C108.433 250.726 108.999 252.658 109.601 254.704C111.216 260.191 113.228 267.022 107.145 272.257C96.8211 281.14 86.3159 283.562 78.3235 278.898C77.5374 278.442 76.7476 277.99 75.9579 277.541C66.7974 272.322 56.4144 266.407 62.4173 251.166C65.7876 242.61 65.7456 236.285 62.2863 231.261C59.3077 226.935 55.9602 227.047 50.987 228.831C52.3405 226.701 53.7183 224.588 55.1263 222.498C59.1766 222.168 63.2586 223.387 66.6252 228.275C71.1075 234.781 71.3335 242.901 67.3192 253.098C63.1909 263.58 68.6183 267.295 78.5678 272.963C79.3701 273.423 80.1775 273.882 80.9798 274.349C89.0988 279.086 98.7031 272.568 103.71 268.264C107.044 265.391 106.199 261.806 104.549 256.19C103.905 254.009 103.242 251.752 103.006 249.517C102.903 248.517 102.708 247.468 102.499 246.359C101.733 242.265 100.784 237.168 104.889 233.096C110.196 227.835 115.246 232.294 117.959 234.685C118.396 235.069 118.821 235.446 119.24 235.786C124.926 240.398 130.064 241.086 136.423 238.087C145.137 233.977 153.054 236.366 157.6 244.482C161.745 251.879 161.542 261.112 157.011 271.187C149.596 287.683 141.679 304.477 134.024 320.719C126.868 335.9 119.468 351.598 112.655 366.684C106.8 379.656 93.1005 383.985 81.0158 387.802C79.5879 388.254 78.1807 388.7 76.8102 389.152C72.7599 390.489 69.885 392.974 68.2665 396.542C66.0901 401.337 66.3455 407.88 68.9502 414.042C71.3497 419.718 72.754 419.269 73.78 418.949C89.4263 413.977 101.739 424.306 111.629 432.607C112.777 433.573 113.909 434.523 115.028 435.435C118.52 438.285 130.875 447.173 143.257 441.856C156.928 435.987 168.207 437.356 180.974 446.436L182.238 447.34C190.952 453.561 202.891 462.069 213.591 459.91C216.396 459.341 220.569 459.626 224.533 464.188C234.774 475.969 236.828 508.323 233.406 518.009C223.319 546.56 209.37 579.85 193.067 614.279C188.701 623.498 186.149 632.706 185.416 641.826C183.703 641.15 182.004 640.449 180.309 639.74Z" fill="#57A03C"/>
<path d="M146.043 136.92C145.152 139.776 144.395 142.639 143.68 145.344L143.534 145.887C140.525 157.254 145.435 163.157 153.731 168.521C164.322 175.368 177.777 187.6 181.729 206.988C183.255 214.474 188.457 219.566 193.961 224.956C194.885 225.86 195.804 226.758 196.7 227.667C201.319 232.335 204.941 234.334 207.785 233.769C211.139 233.101 214.551 228.57 217.927 220.295C223.415 206.848 229.699 193.291 235.775 180.182C239.309 172.564 242.645 165.366 245.829 158.208C254.196 139.385 254.84 120.969 247.695 100.981C249.468 100.72 251.244 100.468 253.027 100.24C260.278 121.148 259.461 140.509 250.642 160.347C247.441 167.545 244.097 174.76 240.555 182.399C234.503 195.452 228.247 208.951 222.805 222.287C218.604 232.582 214.157 237.874 208.811 238.936C208.14 239.068 207.463 239.135 206.78 239.135C202.599 239.135 198.146 236.622 192.954 231.369C192.079 230.482 191.177 229.604 190.277 228.721C184.445 223.011 178.416 217.109 176.566 208.04C172.98 190.446 160.614 179.245 150.869 172.946C142.94 167.817 134.361 159.955 138.443 144.537L138.585 143.997C138.848 143.002 139.117 141.987 139.395 140.96C141.591 139.582 143.808 138.238 146.043 136.92Z" fill="#57A03C"/>
<path d="M106.097 186.099C103.337 186.099 99.7721 187.112 95.4414 189.129C93.1744 190.186 90.8714 191.178 88.6465 192.141C85.6133 193.45 82.4771 194.805 79.4756 196.301C78.9016 196.584 78.2833 196.846 77.6547 197.113C74.4405 198.464 73.4234 199.126 73.6493 201.811C73.9761 205.7 76.8348 207.715 78.5093 208.57C84.6351 211.696 90.7029 209.823 100.328 204.948C102.247 202.871 105.142 202.299 107.72 201.79C112.285 200.886 114.577 200.432 113.759 194.665C113.194 190.664 111.833 188.054 109.717 186.904C108.725 186.37 107.518 186.099 106.097 186.099ZM68.6746 204.047C72.5718 199.171 76.6221 194.425 80.8248 189.826C82.748 188.949 84.6712 188.118 86.5562 187.304C88.7502 186.356 91.0172 185.378 93.2164 184.352C101.486 180.501 107.705 179.821 112.228 182.274C115.892 184.26 118.161 188.182 118.976 193.925C120.495 204.633 113.137 206.088 108.741 206.957C106.796 207.341 104.781 207.739 104.098 208.645L103.732 209.127L103.195 209.4C96.9841 212.571 90.8611 215.343 84.7441 215.343C81.8692 215.343 78.995 214.731 76.1157 213.261C72.1935 211.262 69.5548 207.963 68.6746 204.047Z" fill="#57A03C"/>
<path d="M502.398 487.029C503.143 488.899 503.507 491.095 503.857 493.227C504.177 495.151 504.769 498.731 505.602 499.137C505.758 499.212 506.49 499.223 508.035 498.378C515.676 494.219 518.347 484.786 515.972 470.346C515.832 469.502 515.707 468.57 515.578 467.6C515.194 464.723 514.477 459.366 512.976 458.618C512.589 458.424 511.714 458.665 510.693 459.242C503.52 463.292 500.804 472.382 502.398 487.029ZM505.802 504.444C504.906 504.444 504.072 504.252 503.291 503.873C500.015 502.273 499.326 498.111 498.661 494.087C498.337 492.126 498.002 490.095 497.41 488.753L497.249 488.387L497.205 487.989C496.491 481.67 494.315 462.438 508.105 454.656C510.818 453.121 513.249 452.87 515.326 453.903C519.331 455.897 520.11 461.742 520.797 466.901C520.924 467.817 521.038 468.695 521.172 469.493C524.634 490.529 517.307 499.329 510.556 503.008C508.793 503.966 507.219 504.444 505.802 504.444Z" fill="#57A03C"/>
<path d="M299.408 168.321C299.194 168.388 298.81 168.544 298.216 168.925C291.709 173.111 293.125 182.643 294.371 191.051C294.615 192.684 294.845 194.249 295.007 195.696C295.068 196.257 295.126 196.87 295.185 197.516C295.378 199.569 295.887 205.022 297.081 205.675C297.115 205.697 297.488 205.714 298.265 205.31C305.598 201.509 304.548 192.263 302.563 181.466L302.443 180.804C301.054 179.008 300.727 176.237 300.386 173.329C300.213 171.852 299.9 169.206 299.408 168.321ZM297.144 210.95C296.061 210.95 295.196 210.649 294.555 210.298C290.902 208.304 290.369 202.594 289.941 198.006C289.883 197.394 289.829 196.81 289.77 196.277C289.617 194.89 289.393 193.39 289.159 191.824C287.824 182.833 285.999 170.52 295.367 164.494C297.751 162.961 299.867 162.611 301.656 163.457C304.699 164.893 305.167 168.868 305.619 172.713C305.805 174.313 306.12 176.987 306.613 177.585L307.367 178.2L307.488 179.109L307.745 180.512C309.472 189.898 312.081 204.085 300.688 209.987C299.324 210.696 298.143 210.95 297.144 210.95Z" fill="#57A03C"/>
<path d="M282.245 197.119C282.11 197.119 281.666 197.205 280.884 197.734C276.605 200.616 276.847 205.864 277.371 208.733C277.644 210.213 278.124 211.28 278.664 211.586C279.189 211.883 280.152 211.603 280.679 211.405C283.026 210.535 285.28 208.715 284.231 201.808C283.26 197.555 282.323 197.139 282.283 197.124L282.245 197.119ZM279.243 216.987C278.088 216.987 277.021 216.712 276.057 216.164C274.07 215.035 272.77 212.853 272.191 209.683C270.9 202.642 272.996 196.693 277.94 193.364C280.191 191.848 282.307 191.464 284.229 192.226C287.386 193.481 288.645 197.433 289.391 200.736L289.424 200.912C290.676 208.99 288.349 214.183 282.51 216.346C281.354 216.774 280.263 216.987 279.243 216.987Z" fill="#57A03C"/>
<path d="M505.812 499.171C505.708 499.171 505.638 499.156 505.601 499.138C504.768 498.731 504.176 495.151 503.857 493.228C503.507 491.096 503.142 488.9 502.397 487.03C500.803 472.383 503.519 463.293 510.693 459.243C511.48 458.797 512.178 458.554 512.636 458.554C512.773 458.554 512.887 458.574 512.976 458.618C514.476 459.366 515.193 464.724 515.577 467.6C515.707 468.571 515.831 469.503 515.972 470.347C518.347 484.786 515.676 494.22 508.035 498.379C506.853 499.023 506.148 499.171 505.812 499.171Z" fill="#57A03C"/>
<path d="M444.235 595.237C435.639 592.632 429.672 584.658 427.711 576.189C425.943 568.549 424.58 560.49 423.263 552.698C422.973 550.964 422.679 549.237 422.383 547.518L422.347 547.119C422.113 533.884 415.791 521.148 405.435 513.049C395.375 505.179 391.256 492.615 389.345 479.417C391.03 478.773 392.719 478.11 394.388 477.433C396.073 489.979 399.692 501.871 408.681 508.9C420.223 517.926 427.288 532.089 427.61 546.822C427.896 548.478 428.176 550.148 428.459 551.82C429.762 559.537 431.112 567.516 432.844 575.002C434.678 582.927 440.776 590.802 450.127 590.862C448.185 592.347 446.22 593.806 444.235 595.237ZM487.47 556.224C491.188 545.505 492.451 534.096 491.16 524.793C489.142 509.611 486.995 497.685 484.19 486.113C478.107 460.987 477.356 439.794 482.059 421.24C484.77 418.69 487.418 416.095 490.028 413.439C482.591 433.243 482.412 456.378 489.314 484.872C492.12 496.475 494.367 508.933 496.381 524.084C497.37 531.212 497.046 538.994 495.548 546.715C492.928 549.948 490.233 553.122 487.47 556.224Z" fill="#57A03C"/>
<path d="M188.57 625.738C186.94 625.073 185.301 624.385 183.689 623.689C184.923 619.805 186.462 615.913 188.304 612.023C204.531 577.754 218.407 544.638 228.437 516.255C229.972 511.906 230.082 501.611 228.64 491.348C230.473 491.747 232.319 492.132 234.168 492.495C235.443 503.052 235.082 513.257 233.405 518.008C223.318 546.56 209.369 579.849 193.066 614.279C191.255 618.101 189.757 621.923 188.57 625.738ZM142.87 601.64C140.624 600.157 138.398 598.64 136.202 597.093C131.837 582.166 124.41 567.643 110.911 557.65C89.8765 540.671 86.309 495.011 94.219 473.655C94.9351 471.715 96.1635 469.903 97.3493 468.15C100.452 463.568 101.577 461.247 99.3108 458.258C95.242 452.899 89.3031 445.081 83.3318 445.081C82.6745 445.081 82.0172 445.174 81.3607 445.376C78.307 446.327 75.1553 446.801 71.9168 446.801C60.0426 446.801 46.9658 440.43 32.9034 427.764C30.8403 425.904 28.764 424.036 26.6693 422.166C26.238 419.489 25.8479 416.804 25.4983 414.104C29.2064 417.341 32.8371 420.613 36.4297 423.849C49.4852 435.608 61.3866 441.526 71.9242 441.526C74.6409 441.526 77.2655 441.133 79.7974 440.346C81.0413 439.96 82.2587 439.781 83.4429 439.781C91.902 439.781 98.7646 448.827 103.506 455.072C108.294 461.38 104.49 467 101.715 471.103C100.655 472.668 99.6552 474.143 99.1599 475.485C91.7386 495.52 95.493 538.435 114.133 553.482C130.567 565.647 138.557 583.786 142.87 601.64ZM129.085 448.142C123.206 446.947 117.231 444.034 111.696 439.516C110.558 438.589 109.407 437.623 108.239 436.644C100.172 429.87 91.8821 422.909 82.0334 422.909C79.8909 422.909 77.6762 423.236 75.3732 423.969C74.4716 424.253 73.6362 424.381 72.8597 424.381C67.5986 424.383 65.1145 418.503 64.0966 416.093C60.9288 408.6 60.694 400.478 63.4688 394.363C64.3196 392.488 65.4384 390.813 66.8 389.359C67.896 390.765 69.0051 392.159 70.1276 393.542C69.3879 394.435 68.7667 395.438 68.2654 396.542C66.089 401.337 66.3444 407.88 68.9492 414.042C70.7539 418.31 71.9956 419.115 72.9348 419.115C73.2461 419.115 73.5243 419.027 73.779 418.949C76.609 418.048 79.3359 417.651 81.9525 417.651C86.9817 417.651 91.6245 419.118 95.9273 421.328C106.256 431.059 117.342 440.033 129.085 448.142Z" fill="#57A03C"/>
<path d="M505.802 504.444C504.906 504.444 504.072 504.252 503.291 503.873C500.015 502.273 499.326 498.111 498.661 494.087C498.337 492.126 498.002 490.095 497.41 488.753L497.249 488.387L497.205 487.99C496.491 481.67 494.315 462.438 508.105 454.656C509.728 453.74 511.246 453.28 512.652 453.28C513.597 453.28 514.49 453.487 515.326 453.903C519.331 455.897 520.11 461.742 520.797 466.901C520.924 467.817 521.038 468.696 521.172 469.493C524.634 490.53 517.307 499.329 510.556 503.008C508.793 503.966 507.219 504.444 505.802 504.444ZM512.636 458.554C512.179 458.554 511.48 458.797 510.693 459.242C503.52 463.292 500.804 472.382 502.398 487.029C503.143 488.899 503.507 491.096 503.857 493.227C504.177 495.151 504.769 498.731 505.602 499.137C505.639 499.156 505.708 499.17 505.812 499.17C506.148 499.17 506.854 499.022 508.035 498.378C515.676 494.219 518.347 484.786 515.972 470.346C515.832 469.502 515.707 468.57 515.578 467.6C515.194 464.723 514.477 459.366 512.976 458.618C512.888 458.574 512.773 458.554 512.636 458.554Z" fill="#57A03C"/>
<path d="M7.45703 367.834C7.45703 367.821 7.45777 367.816 7.45777 367.805C7.45777 367.814 7.45703 367.824 7.45703 367.834ZM7.46586 367.618C7.4666 367.606 7.4666 367.595 7.46734 367.582C7.4666 367.593 7.46586 367.609 7.46586 367.618ZM7.47543 367.403C7.47617 367.385 7.4769 367.367 7.47838 367.347C7.4769 367.364 7.47617 367.385 7.47543 367.403ZM7.485 367.188C7.48574 367.162 7.48721 367.133 7.48868 367.108C7.48721 367.135 7.48647 367.162 7.485 367.188ZM7.4953 366.972C7.49751 366.902 7.50119 366.827 7.50487 366.756C7.50119 366.829 7.49825 366.9 7.4953 366.972ZM7.50487 366.756C7.56302 365.516 7.63073 364.275 7.70654 363.031V363.036C7.63 364.277 7.56302 365.518 7.50487 366.756ZM55.1202 222.497C59.3943 216.154 63.9164 209.997 68.674 204.044C68.674 204.046 68.674 204.046 68.674 204.046C63.9164 210 59.395 216.154 55.1217 222.497C55.1209 222.497 55.1209 222.497 55.1202 222.497ZM80.8257 189.825C98.0485 170.977 117.758 154.523 139.4 140.946C139.398 140.946 139.398 140.949 139.398 140.949C117.764 154.525 98.0485 170.983 80.8308 189.825C80.8279 189.825 80.8279 189.825 80.8257 189.825ZM253.026 100.236C264.711 98.7489 276.602 97.9841 288.64 97.9841C276.602 97.9841 264.708 98.7489 253.026 100.236Z" fill="#FFFBDE"/>
<path fill-rule="evenodd" clip-rule="evenodd" d="M22.5995 471.723C15.4351 451.016 10.6245 429.27 8.47677 406.836C10.3926 408.322 12.279 409.833 14.1441 411.367C14.7749 432.067 17.6689 452.273 22.5995 471.723ZM7.63403 395.703C7.12544 386.578 7.05699 377.353 7.44855 368.044C7.45149 367.975 7.45444 367.902 7.45812 367.834C7.45812 367.824 7.45885 367.814 7.45885 367.805C7.4618 367.743 7.464 367.679 7.46695 367.618C7.46695 367.609 7.46769 367.593 7.46842 367.582C7.47137 367.525 7.47431 367.462 7.47652 367.403C7.47725 367.385 7.47799 367.364 7.47946 367.347C7.48093 367.292 7.48314 367.242 7.48609 367.188C7.48756 367.162 7.48829 367.135 7.48977 367.108C7.49197 367.063 7.49418 367.016 7.49639 366.972C7.49933 366.9 7.50228 366.829 7.50596 366.756C7.5641 365.518 7.63108 364.277 7.70763 363.036C7.05036 374.047 7.03638 384.94 7.63403 395.703ZM562.045 310.264C559.483 302.874 556.622 295.625 553.471 288.519C553.996 288.448 554.491 288.353 554.958 288.239C555.114 288.2 555.277 288.158 555.433 288.113C556.672 291.707 557.832 295.326 558.93 298.983C560.049 302.711 561.075 306.476 562.045 310.264ZM69.5009 234.539C68.9202 232.299 67.9619 230.214 66.6253 228.274C63.5943 223.873 59.9849 222.445 56.3394 222.445C55.9339 222.445 55.5276 222.463 55.1228 222.497C59.3961 216.154 63.9175 210 68.6751 204.046C69.5554 207.962 72.1933 211.262 76.117 213.261C78.9963 214.731 81.8705 215.343 84.7454 215.343C84.8727 215.343 85.0022 215.341 85.1296 215.339C79.6536 221.495 74.4322 227.908 69.5009 234.539ZM80.8319 189.825C98.0496 170.983 117.765 154.525 139.399 140.949C139.121 141.979 138.851 142.998 138.586 143.997L138.444 144.537C135.852 154.323 138.363 161.066 142.572 165.997C133.323 172 124.422 178.547 115.947 185.574C114.932 184.17 113.694 183.069 112.229 182.275C110.464 181.317 108.439 180.836 106.133 180.836C102.536 180.836 98.2572 182.004 93.2177 184.352C91.0184 185.378 88.7515 186.356 86.5574 187.304C84.6747 188.117 82.7537 188.947 80.8319 189.825ZM363.244 128.873C360.38 128.169 357.49 127.506 354.588 126.891C354.857 126.291 355.128 125.692 355.4 125.092C356.971 121.602 357.955 120.887 358.401 120.767C358.456 120.753 358.516 120.746 358.582 120.746C358.989 120.746 359.604 121.029 360.313 121.538C362.894 123.4 364.065 125.086 363.244 128.873ZM257.787 123.23C257.335 115.712 255.749 108.087 253.027 100.236C264.709 98.7489 276.604 97.9841 288.641 97.9841C288.649 97.9841 288.649 97.9841 288.654 97.9841H288.657C294.426 97.9841 300.242 98.1608 306.077 98.5148C306.988 98.5649 307.905 98.6281 308.824 98.6922C309.357 98.7349 309.889 98.7702 310.421 98.8122C311.872 98.9255 313.342 99.0388 314.791 99.1809C328.939 100.476 342.758 102.805 356.169 106.083C352.095 105.092 348.006 104.186 343.859 103.372C342.023 103.004 340.171 102.664 338.32 102.331C334.364 109.007 331.53 116.094 329.507 122.742C326.888 122.424 324.253 122.148 321.606 121.9C320.158 121.758 318.688 121.645 317.237 121.532C315.786 121.425 314.331 121.312 312.892 121.234C307.051 120.88 301.247 120.703 295.47 120.703C282.721 120.703 270.133 121.56 257.787 123.23ZM357.41 106.395L357.399 106.388C357.405 106.395 357.405 106.395 357.41 106.395ZM356.602 106.189C356.566 106.183 356.533 106.175 356.501 106.167L356.498 106.166L356.495 106.166C356.464 106.158 356.434 106.15 356.4 106.14C356.429 106.15 356.462 106.158 356.495 106.166L356.498 106.166L356.501 106.167C356.536 106.175 356.571 106.183 356.602 106.189ZM356.371 106.139H356.371C356.345 106.13 356.32 106.122 356.295 106.116H356.294L356.292 106.115L356.289 106.114L356.286 106.113L356.283 106.113L356.28 106.112L356.278 106.111H356.277L356.275 106.111L356.272 106.11C356.248 106.103 356.223 106.097 356.198 106.091C356.223 106.097 356.248 106.103 356.272 106.11L356.275 106.111L356.277 106.111H356.278L356.28 106.112L356.283 106.113L356.286 106.113L356.289 106.114L356.292 106.115L356.294 106.116H356.295C356.32 106.122 356.345 106.13 356.371 106.139H356.371Z" fill="#FFFBDE"/>
<path d="M553.471 288.519C552.706 286.789 551.927 285.068 551.127 283.359C551.29 283.367 551.453 283.373 551.616 283.373C552.295 283.373 552.982 283.292 553.669 283.131C554.271 284.782 554.858 286.449 555.432 288.113C555.276 288.158 555.114 288.199 554.958 288.238C554.49 288.353 553.995 288.448 553.471 288.519ZM368.341 130.173C366.65 129.723 364.95 129.29 363.244 128.873C364.064 125.086 362.893 123.4 360.312 121.538C359.603 121.029 358.988 120.745 358.581 120.745C358.515 120.745 358.455 120.753 358.401 120.767C357.955 120.887 356.971 121.602 355.4 125.092C355.128 125.691 354.857 126.291 354.587 126.89C352.826 126.519 351.063 126.162 349.293 125.821C349.726 124.852 350.16 123.889 350.596 122.926C351.998 119.818 353.862 116.526 357.046 115.676C357.55 115.542 358.061 115.478 358.581 115.478C360.132 115.478 361.748 116.072 363.4 117.269C368.058 120.639 369.6 124.512 368.341 130.173ZM334.801 123.422C333.044 123.181 331.275 122.948 329.507 122.742C331.529 116.094 334.363 109.007 338.32 102.331C340.171 102.664 342.023 103.004 343.858 103.372C339.779 109.821 336.871 116.823 334.801 123.422Z" fill="#57A03C"/>
<path d="M14.1443 411.367C12.2793 409.833 10.3928 408.322 8.47698 406.837C8.25323 404.492 8.05672 402.139 7.89111 399.782C9.9689 401.319 12.0091 402.89 14.0185 404.486C14.0325 406.787 14.0752 409.08 14.1443 411.367ZM64.8929 240.922C65.0637 237.201 64.1951 234.034 62.2866 231.26C60.5011 228.669 58.583 227.669 56.2623 227.669C54.7079 227.669 52.9723 228.118 50.974 228.835C52.3305 226.701 53.7105 224.593 55.1215 222.497C55.1222 222.497 55.1222 222.497 55.123 222.497C55.5278 222.464 55.9341 222.445 56.3396 222.445C59.9851 222.445 63.5946 223.873 66.6255 228.274C67.9621 230.214 68.9204 232.299 69.5011 234.539C67.9327 236.648 66.4025 238.767 64.8929 240.922Z" fill="#57A03C"/>
<path d="M142.571 165.997C138.361 161.066 135.85 154.323 138.442 144.537L138.584 143.997C138.849 142.998 139.119 141.979 139.398 140.949C139.398 140.949 139.398 140.946 139.4 140.946C141.594 139.567 143.814 138.217 146.05 136.901C145.154 139.762 144.396 142.631 143.679 145.344L143.533 145.886C141.472 153.682 143.131 158.907 147.049 163.148C145.546 164.086 144.056 165.031 142.571 165.997ZM252.517 123.995C252.118 116.483 250.51 108.844 247.693 100.972C249.463 100.71 251.245 100.462 253.026 100.236C255.747 108.087 257.333 115.712 257.786 123.23C256.02 123.471 254.273 123.719 252.517 123.995Z" fill="#57A03C"/>
<path d="M84.7448 215.343C81.8699 215.343 78.9958 214.731 76.1165 213.261C72.1927 211.262 69.5548 207.962 68.6746 204.046C68.6746 204.046 68.6746 204.046 68.6746 204.044C72.5725 199.168 76.6258 194.426 80.8262 189.825C80.8285 189.825 80.8285 189.825 80.8314 189.825C82.7531 188.947 84.6742 188.117 86.5569 187.304C88.751 186.356 91.0179 185.378 93.2171 184.352C98.2567 182.004 102.536 180.836 106.132 180.836C108.438 180.836 110.464 181.317 112.229 182.275C113.693 183.069 114.931 184.17 115.947 185.574C114.586 186.705 113.241 187.839 111.901 188.994C111.297 188.064 110.567 187.366 109.718 186.904C108.726 186.37 107.519 186.099 106.098 186.099C103.338 186.099 99.7729 187.112 95.4421 189.129C93.1752 190.186 90.8722 191.178 88.6472 192.141C85.6141 193.45 82.4779 194.805 79.4764 196.301C78.9023 196.584 78.284 196.846 77.6555 197.113C74.4413 198.464 73.4241 199.126 73.6501 201.811C73.9768 205.7 76.8355 207.715 78.51 208.57C80.5613 209.616 82.6104 210.102 84.786 210.103C86.6997 210.103 88.712 209.728 90.9185 209.026C88.9563 211.104 87.0324 213.202 85.129 215.339C85.0017 215.341 84.8721 215.343 84.7448 215.343Z" fill="#57A03C"/>
<path d="M288.536 103.174C181.918 103.174 85.2858 163.78 39.0638 261.112C24.5193 291.725 15.8225 324.537 13.2155 358.643C12.9851 361.66 12.8144 364.392 12.6915 366.998C5.68309 517.284 117.771 643.994 267.868 655.468C417.973 666.944 548.012 558.737 563.927 409.134C564.203 406.527 564.444 403.801 564.677 400.797C567.283 366.692 563.672 332.937 553.951 300.471C521.413 191.716 427.354 114.735 314.315 104.349C312.866 104.207 311.437 104.101 310.023 103.988C308.607 103.882 307.197 103.775 305.8 103.697C300.026 103.344 294.262 103.174 288.536 103.174ZM289.31 666.675C281.926 666.675 274.513 666.392 267.079 665.826C192.17 660.1 123.541 625.927 73.8363 569.609C24.2293 513.403 -1.16925 441.276 2.31654 366.513C2.44387 363.801 2.62125 360.969 2.85972 357.854C5.56533 322.471 14.5897 288.423 29.6825 256.657C53.9792 205.495 92.5901 162.964 141.337 133.663C191.156 103.718 248.238 89.7716 306.392 93.3325C307.826 93.4032 309.316 93.5239 310.809 93.6372C312.304 93.7506 313.813 93.8639 315.304 94.0126C373.297 99.3362 427.587 121.8 472.268 158.971C515.982 195.337 547.672 243.238 563.905 297.493C573.995 331.182 577.732 366.209 575.035 401.589C574.795 404.695 574.539 407.522 574.256 410.232C566.334 484.657 530.27 552.085 472.704 600.098C420.743 643.436 356.331 666.675 289.31 666.675Z" fill="#57A03C"/>
<path d="M14.6582 468.277C67.3638 487.776 463.788 421.981 557.378 271.157" stroke="#FBD927" stroke-width="9" stroke-linecap="round" stroke-linejoin="round"/>
<path d="M6.86694 435.561C107.283 450.686 449.409 345.13 507.478 189.944" stroke="#FBD927" stroke-width="9" stroke-linecap="round" stroke-linejoin="round"/>
<path d="M16.8577 472.172C68.6234 494.044 466.757 447.762 567.098 301.344" stroke="#FBD927" stroke-width="9" stroke-linecap="round" stroke-linejoin="round"/>
<path d="M8.20776 450.826C56.1447 480.153 456.57 503.095 577.572 373.229" stroke="#FBD927" stroke-width="9" stroke-linecap="round" stroke-linejoin="round"/>
<path d="M16.8997 467.022C66.5979 493.255 461.963 488.46 574.5 351.193" stroke="#FBD927" stroke-width="9" stroke-linecap="round" stroke-linejoin="round"/>
<path d="M34.3909 519.378C91.1424 543.742 453.077 543.063 575.853 383.558" stroke="#FBD927" stroke-width="9" stroke-linecap="round" stroke-linejoin="round"/>
<path d="M20.5852 494.147C77.336 518.511 455.748 520.832 578.524 361.327" stroke="#FBD927" stroke-width="9" stroke-linecap="round" stroke-linejoin="round"/>
<path d="M122.138 506.502C184.206 505.15 164.583 625.952 164.538 735.669" stroke="#FBD927" stroke-width="9" stroke-linecap="round" stroke-linejoin="round"/>
<path d="M12.0164 459.395C64.722 478.893 462.66 411.242 556.25 260.418" stroke="#FBD927" stroke-width="9" stroke-linecap="round" stroke-linejoin="round"/>
<path d="M8.15845 455.133C56.5885 483.639 458.402 488.938 577.172 357.028" stroke="#FBD927" stroke-width="9" stroke-linecap="round" stroke-linejoin="round"/>
<path d="M4.87598 455.586C53.3061 484.092 458.034 471.256 573.289 340.846" stroke="#FBD927" stroke-width="9" stroke-linecap="round" stroke-linejoin="round"/>
<path d="M12.1594 472.172C15.3044 471.83 55.1327 487.838 148.505 486.06C187.189 485.324 232.494 477.055 263.906 475.181C310.274 472.414 310.64 467.46 348.537 498.212C385.586 528.277 422.27 555.556 490.772 455.88C500.345 441.948 532.503 408.534 546.282 399.674" stroke="#FBD927" stroke-width="9" stroke-linecap="round" stroke-linejoin="round"/>
</svg>
