<svg width="668" height="649" viewBox="0 0 668 649" fill="none" xmlns="http://www.w3.org/2000/svg">
<circle cx="367" cy="338" r="301" fill="#DF231D"/>
<path fill-rule="evenodd" clip-rule="evenodd" d="M289.249 569.479C282.041 569.479 274.781 569.206 267.474 568.647C237.8 566.377 209.555 559.591 183.356 549.01L183.334 549L183.254 548.968L182.855 548.806L182.775 548.774C182.572 548.692 182.369 548.609 182.166 548.526C176.139 546.06 170.222 543.392 164.422 540.532C169.622 543.098 174.922 545.51 180.306 547.758C180.925 548.017 181.545 548.272 182.166 548.526C182.369 548.608 182.572 548.692 182.775 548.774L182.855 548.806L183.254 548.968L183.334 549L183.356 549.01C184.041 549.286 184.727 549.559 185.414 549.831C185.843 544.492 186.895 539.123 188.571 533.738C189.758 529.923 191.256 526.101 193.067 522.279C209.37 487.849 223.319 454.56 233.406 426.008C235.083 421.256 235.444 411.052 234.169 400.495C232.842 389.53 229.752 378.191 224.533 372.187C221.475 368.667 218.294 367.693 215.71 367.693C214.947 367.693 214.233 367.779 213.591 367.909C212.434 368.145 211.26 368.251 210.076 368.251C200.345 368.251 190.01 360.885 182.238 355.339L180.974 354.435C173.317 348.991 166.195 346.319 158.769 346.319C153.818 346.319 148.728 347.508 143.257 349.855C140.505 351.039 137.75 351.52 135.096 351.52C125.816 351.52 117.744 345.651 115.028 343.434C113.909 342.523 112.777 341.573 111.629 340.606C106.966 336.691 101.765 332.326 95.9284 329.328C91.6256 327.118 86.9828 325.65 81.9536 325.65C79.337 325.65 76.6101 326.048 73.7801 326.949C73.5254 327.027 73.2472 327.115 72.9359 327.115C71.9967 327.115 70.755 326.31 68.9503 322.042C66.3455 315.88 66.0901 309.337 68.2666 304.541C68.7678 303.437 69.389 302.435 70.1287 301.542C71.7774 299.545 74.0134 298.073 76.8103 297.151C78.1807 296.7 79.588 296.253 81.0159 295.801C93.1006 291.984 106.8 287.656 112.655 274.683C119.468 259.598 126.868 243.899 134.024 228.718C141.679 212.476 149.596 195.683 157.011 179.186C161.542 169.112 161.745 159.879 157.6 152.481C154.521 146.982 149.892 144.11 144.514 144.11C141.959 144.11 139.233 144.762 136.423 146.087C133.869 147.292 131.513 147.901 129.238 147.901C125.851 147.901 122.644 146.546 119.24 143.786C118.822 143.446 118.396 143.069 117.959 142.685C116.173 141.108 113.371 138.637 110.15 138.637C108.482 138.637 106.699 139.302 104.889 141.096C100.784 145.167 101.733 150.264 102.5 154.359C102.708 155.468 102.903 156.516 103.006 157.516C103.242 159.752 103.905 162.008 104.549 164.189C106.2 169.806 107.044 173.391 103.71 176.263C99.9397 179.503 93.5628 184.003 87.1727 184.003C85.0802 184.003 82.984 183.517 80.9798 182.349C80.1776 181.882 79.3701 181.422 78.5679 180.963C68.6184 175.295 63.191 171.579 67.3193 161.097C70.1368 153.941 70.8662 147.81 69.5009 142.539C74.4322 135.908 79.6535 129.495 85.1295 123.339C91.1192 123.227 97.1148 120.503 103.196 117.4L103.733 117.127L104.099 116.644C104.782 115.738 106.797 115.341 108.742 114.957C113.138 114.087 120.497 112.633 118.978 101.925C118.487 98.4772 117.474 95.6826 115.947 93.5739C124.422 86.5464 133.323 80.0002 142.572 73.9972C144.992 76.8346 147.975 79.0728 150.87 80.9452C160.615 87.2441 172.982 98.4456 176.567 116.039C178.417 125.109 184.446 131.011 190.278 136.721C191.178 137.603 192.08 138.481 192.955 139.369C198.148 144.621 202.6 147.135 206.781 147.135C207.464 147.135 208.141 147.068 208.812 146.935C214.158 145.873 218.605 140.582 222.806 130.287C228.249 116.951 234.504 103.451 240.556 90.3987C244.098 82.7595 247.442 75.5443 250.643 68.3468C256.151 55.9537 258.539 43.7446 257.787 31.2301C270.133 29.5593 282.721 28.7026 295.47 28.7026C301.247 28.7026 307.05 28.88 312.892 29.234C314.331 29.312 315.786 29.4246 317.237 29.5313C318.688 29.6447 320.158 29.758 321.606 29.8993C324.253 30.1474 326.888 30.4234 329.507 30.7421C327.15 38.474 325.888 45.6038 325.215 50.7787C324.301 57.8232 327.122 66.1682 334.148 67.7624C334.74 67.8949 335.295 67.9604 335.815 67.9604C340.463 67.9574 342.326 62.9591 343.607 59.5337C343.955 58.6019 344.284 57.7224 344.635 56.9613C347.021 51.7621 349.368 46.5282 351.713 41.2966C352.671 39.1599 353.627 37.0247 354.588 34.8903C357.49 35.5056 360.38 36.1688 363.244 36.8724C363.065 37.6975 362.792 38.6227 362.418 39.6707C360.778 44.2745 359.557 49.6387 358.264 55.3178C354.058 73.8022 349.706 92.9181 330.546 93.4576C327.82 93.5356 325.229 96.8955 324.478 99.1853C317.19 121.453 306.738 144.998 291.589 173.28C285.876 183.939 292.377 196.45 301.748 203.303C303.652 204.695 305.47 205.396 307.173 205.396C307.819 205.396 308.45 205.294 309.063 205.092C313.098 203.757 314.676 198.671 316.203 193.748C316.764 191.944 317.294 190.238 317.899 188.846C322.816 177.532 327.355 169.608 333.516 167.72C334.521 167.411 335.599 167.258 336.755 167.258C340.838 167.258 345.887 169.193 352.054 173.11C356.677 176.05 361.637 177.468 366.483 177.468C374.939 177.465 383.038 173.142 388.329 165.035C392.48 158.679 399.863 154.998 408.096 154.998C409.186 154.998 410.296 155.062 411.415 155.194C421.217 156.356 429.193 162.372 432.228 170.888C432.529 171.737 432.563 173.812 431.764 177.091C428.539 190.318 412.3 207.208 396.306 213.971C392.558 215.559 387.835 217 383.059 217C379.771 217 376.458 216.317 373.417 214.53C366.296 210.343 358.542 208.327 350.942 208.327C337.635 208.327 324.805 214.504 316.692 225.996C296.732 254.27 289.446 281.196 293.785 310.859C297.526 330.031 314.082 350.115 333.145 358.616C339.59 361.487 345.931 362.923 352.015 362.923C358.786 362.923 365.243 361.145 371.174 357.596C373.695 356.09 375.972 355.333 377.987 355.333C379.184 355.333 380.285 355.599 381.29 356.133C384.93 358.065 387.433 363.65 387.823 370.71C388.127 376.189 388.542 381.86 389.347 387.416C391.258 400.615 395.377 413.179 405.437 421.049C415.792 429.147 422.115 441.883 422.349 455.118L422.385 455.517C422.681 457.237 422.974 458.963 423.265 460.698C424.582 468.49 425.945 476.549 427.713 484.188C429.674 492.658 435.64 500.632 444.237 503.236C446.132 503.81 448.155 504.122 450.292 504.122C451.357 504.122 452.45 504.047 453.568 503.883C467.694 501.561 479.955 491.716 488.094 476.157C491.585 469.485 494.108 462.126 495.55 454.715C497.047 446.994 497.372 439.212 496.383 432.084C494.368 416.933 492.122 404.475 489.315 392.872C482.414 364.378 482.593 341.243 490.029 321.439C491.933 316.376 494.309 311.533 497.161 306.872C505.816 292.737 502.313 274.688 489.017 264.889C473.476 253.441 458.437 241.622 447.073 232.605C446.403 232.074 445.709 231.621 445.036 231.182C442.077 229.247 440.591 228.274 443.394 222.53C444.997 219.243 446.008 218.942 446.117 218.918C446.146 218.914 446.174 218.911 446.205 218.911C446.87 218.911 448.321 220.116 449.3 220.933C449.832 221.377 450.37 221.824 450.915 222.235C454.68 225.067 458.489 228.009 462.171 230.852C466.251 234.002 470.47 237.26 474.594 240.342C478.69 243.661 483.239 245.34 488.147 245.34C488.931 245.34 489.723 245.296 490.523 245.21C498.102 244.409 506.187 239.511 512.153 232.116C516.892 226.243 518.992 219.929 518.235 213.853C517.516 208.104 514.226 202.885 508.718 198.756C507.67 197.972 506.616 197.188 505.556 196.404C500.55 192.694 495.373 188.856 490.73 184.426C489.601 183.346 488.225 182.648 486.892 181.971C483.691 180.342 482.23 179.597 483.704 175.245C484.581 172.649 485.535 171.553 486.132 171.395C486.218 171.371 486.308 171.36 486.407 171.36C487.879 171.36 490.668 173.83 492.208 175.195C496.718 179.194 501.625 181.313 506.283 181.313C507.14 181.313 507.987 181.243 508.823 181.098C511.341 180.664 513.6 180.446 515.699 180.446C524.232 180.446 530.066 184.034 539.581 191.154C544.005 195.415 548.225 196.64 551.609 196.64C552.268 196.64 552.884 196.596 553.471 196.519C556.622 203.625 559.482 210.874 562.045 218.264C561.303 215.366 560.528 212.482 559.704 209.617C559.451 208.737 559.193 207.859 558.93 206.983C559.192 207.859 559.45 208.737 559.704 209.617C568.784 241.064 572.499 274.633 569.854 309.194C569.642 312.033 569.387 314.867 569.09 317.682C553.811 461.324 432.296 569.479 289.249 569.479ZM26.6704 330.166C28.7651 332.035 30.8414 333.904 32.9045 335.763C46.9669 348.43 60.0437 354.801 71.9179 354.801C75.1564 354.801 78.3081 354.326 81.3618 353.376C82.0183 353.174 82.6756 353.08 83.3329 353.08C89.3042 353.08 95.2431 360.898 99.3119 366.257C101.578 369.246 100.453 371.568 97.3504 376.15C96.1646 377.903 94.9362 379.715 94.2201 381.655C86.3101 403.011 89.8776 448.671 110.912 465.649C124.412 475.643 131.838 490.166 136.203 505.093C138.405 512.625 139.828 520.261 140.858 527.472C68.201 482.509 18.1834 405.709 8.80205 318.04C8.73728 317.436 8.67472 316.831 8.61363 316.226C8.54297 315.521 8.47084 314.817 8.40534 314.111C8.29861 312.956 8.19778 311.799 8.10504 310.641C8.07192 310.23 8.03953 309.819 8.00862 309.409C7.91883 308.23 7.83713 307.05 7.76279 305.868C7.73556 305.437 7.70906 305.007 7.68404 304.576C7.61338 303.369 7.54934 302.161 7.49414 300.95C7.47795 300.601 7.46249 300.252 7.44777 299.902C7.39257 298.58 7.34547 297.257 7.30867 295.931C7.30204 295.693 7.29542 295.454 7.28953 295.216C7.25346 293.796 7.22697 292.374 7.21225 290.949L7.20783 290.482C7.19532 288.985 7.19311 287.485 7.20415 285.983L7.20636 285.694C7.21961 284.139 7.24463 282.582 7.28291 281.022L7.28585 280.884C7.32633 279.273 7.3808 277.66 7.44851 276.044V276.041L7.44925 276.038V276.038V276.032V276.031V276.029V276.028V276.026V276.024V276.022V276.021L7.44998 276.019V276.018L7.45734 275.843C7.4544 275.9 7.45219 275.96 7.44998 276.018V276.019L7.44925 276.021V276.022V276.024V276.026V276.028V276.029V276.031V276.032V276.038V276.038L7.44851 276.041V276.044C7.3808 277.66 7.32633 279.273 7.28585 280.884L7.28291 281.022C7.24463 282.582 7.21887 284.139 7.20636 285.694L7.20415 285.983C7.19385 287.485 7.19458 288.985 7.20783 290.482L7.21225 290.949C7.2277 292.374 7.25273 293.796 7.28953 295.216C7.29542 295.454 7.30204 295.693 7.30867 295.931C7.34547 297.257 7.39184 298.58 7.44777 299.902C7.46249 300.252 7.47795 300.601 7.49414 300.95C7.53683 301.869 7.5832 302.786 7.63399 303.702C7.65018 303.993 7.66711 304.285 7.68404 304.576C7.70906 305.007 7.73556 305.437 7.76279 305.868C7.80327 306.507 7.84522 307.146 7.88939 307.781C7.92766 308.325 7.9674 308.867 8.00862 309.409C8.03953 309.819 8.07192 310.23 8.10504 310.641C8.19778 311.799 8.29788 312.954 8.40534 314.111C8.42815 314.352 8.45097 314.592 8.47378 314.834C8.47452 314.834 8.47599 314.834 8.47673 314.836C8.52089 315.3 8.56726 315.763 8.61363 316.226C8.67472 316.831 8.73728 317.436 8.80205 318.04C11.0889 339.341 15.7773 360.003 22.5995 379.723C17.6689 360.273 14.7748 340.067 14.1441 319.367C18.4255 322.893 22.5848 326.526 26.6704 330.166ZM512.653 361.28C511.247 361.28 509.729 361.74 508.106 362.656C494.316 370.438 496.492 389.67 497.206 395.99L497.25 396.387L497.411 396.753C498.003 398.095 498.338 400.126 498.662 402.087C499.328 406.111 500.016 410.274 503.292 411.873C504.073 412.252 504.907 412.444 505.803 412.444C507.221 412.444 508.794 411.966 510.557 411.008C517.308 407.329 524.636 398.53 521.173 377.493C521.039 376.696 520.925 375.818 520.798 374.901C520.111 369.742 519.333 363.897 515.327 361.903C514.491 361.487 513.598 361.28 512.653 361.28ZM163.692 540.172L163.687 540.171L163.682 540.169C163.686 540.171 163.686 540.171 163.687 540.171C163.688 540.171 163.688 540.171 163.692 540.172ZM7.46838 275.579L7.46912 275.577V275.576V275.574V275.573V275.571V275.57V275.569L7.47574 275.415C7.47353 275.466 7.47133 275.519 7.46912 275.569V275.57V275.571V275.573V275.574V275.576V275.577L7.46838 275.579ZM7.48973 275.105V275.103V275.101V275.098L7.49046 275.097V275.096V275.095V275.094V275.088V275.087C7.49193 275.051 7.49341 275.016 7.49561 274.978L7.49046 275.087V275.088V275.094V275.095V275.096V275.097L7.48973 275.098V275.101V275.103V275.105ZM306.077 6.51453C300.234 6.15388 294.434 5.9765 288.657 5.98386C294.426 5.98386 300.242 6.16051 306.077 6.51453Z" fill="#FFFBDE"/>
<path d="M424.98 455.071C424.734 441.115 417.991 427.522 407.059 418.975C393.027 408.002 391.319 386.188 390.452 370.565C389.756 357.965 382.644 347.663 369.82 355.336C340.357 372.965 302.119 339.796 296.367 310.355C291.782 278.974 301.168 252.549 318.843 227.516C331.108 210.137 354.402 206.407 372.082 216.8C392.916 229.05 429.168 198.853 434.323 177.715C434.909 175.305 435.424 172.026 434.712 170.01C427.454 149.659 397.548 146.099 386.124 163.597C378.724 174.926 364.967 178.198 353.465 170.888C332.324 157.454 324.635 166.736 315.48 187.797C312.528 194.587 311.536 207.198 303.302 201.176C295.21 195.259 288.728 184.19 293.908 174.524C306.541 150.947 318.536 125.808 326.98 100.006C327.531 98.3214 329.424 96.1243 330.62 96.0934C358.203 95.3147 358.032 59.815 364.9 40.5563C367.319 33.7665 366.117 30.4868 361.854 27.4C357.503 24.2572 355.136 27.266 352.997 32.0089C349.409 39.9572 345.873 47.9489 342.24 55.8626C340.373 59.9232 339.327 66.2361 334.728 65.1924C329.343 63.9713 327.048 57.1249 327.829 51.1189C329.589 37.546 333.73 22.8985 341.087 10.8535C441.549 29.6456 521.698 101.06 554.554 193.622C550.437 194.705 545.826 193.567 541.286 189.147C528.868 179.838 522.1 176.133 508.373 178.501C503.511 179.342 498.303 177.081 493.957 173.225C489.539 169.31 484.406 164.945 481.208 174.402C478.193 183.308 485.744 183.31 488.909 186.332C494.652 191.814 501.035 196.29 507.136 200.865C517.855 208.898 518.248 220.364 510.105 230.463C502.161 240.308 488.047 247.848 476.248 238.296C468.266 232.325 460.446 226.108 452.499 220.128C448.73 217.296 445.345 212.523 441.024 221.375C436.446 230.761 441.951 231.906 445.433 234.669C459.288 245.66 473.221 256.524 487.452 267.011C499.7 276.034 502.756 292.69 494.915 305.496C478.741 331.911 479.089 361.844 486.751 393.492C489.888 406.441 492.007 419.162 493.769 432.432C497.423 458.766 482.296 496.49 453.139 501.283C441.551 502.961 432.754 494.307 430.277 483.594C428.14 474.358 426.611 464.557 424.98 455.071Z" fill="#57A03C"/>
<path d="M53.1847 133.421C57.2969 132.492 61.2029 133.045 64.4547 137.767C68.9738 144.329 68.0347 152.09 64.8676 160.131C59.2473 174.399 69.8195 178.888 79.6498 184.624C87.9322 189.456 97.8074 184.815 105.428 178.26C112.127 172.493 106.363 164.262 105.625 157.241C105.112 152.331 102.723 146.951 106.742 142.966C110.894 138.85 114.484 143.321 117.58 145.829C123.78 150.861 129.962 152.048 137.547 148.467C144.186 145.336 150.984 146.063 155.302 153.769C159.576 161.398 158.143 170.247 154.608 178.107C140.218 210.108 124.312 242.466 110.255 273.599C104.221 286.965 88.5659 290.499 75.9837 294.651C63.3587 298.816 62.0126 312.399 66.5229 323.067C68.3821 327.466 70.5725 330.729 74.5764 329.457C90.5105 324.393 102.567 336.665 113.363 345.475C121.651 352.242 133.377 356.965 144.298 352.278C157.364 346.667 167.623 348.176 179.447 356.583C188.714 363.175 201.733 372.998 214.113 370.493C230.258 367.224 234.999 413.581 230.92 425.133C219.752 456.743 205.272 490.348 190.684 521.15C186.39 530.221 183.714 539.463 182.857 548.788C169.239 543.258 156.179 536.703 143.76 529.224C140.47 504.828 133.506 479.101 112.48 463.531C92.9938 447.803 88.7993 403.866 96.6879 382.571C98.7524 377.001 106.579 371.477 101.409 364.666C96.0211 357.567 88.7993 348.305 80.5794 350.86C63.7334 356.1 46.5503 344.51 34.6665 333.806C26.0808 326.073 17.4267 318.301 8.17566 311.289C6.9546 296.532 6.86775 281.491 8.03214 266.255C11.788 217.122 27.9459 171.907 53.1847 133.421Z" fill="#57A03C"/>
<path d="M250.371 8.60883C257.479 28.7264 257.011 47.534 248.237 67.2777C239.431 87.081 228.939 108.284 220.368 129.29C213.181 146.902 205.804 148.62 194.829 137.518C188.507 131.126 181.112 125.144 179.149 115.513C175.929 99.7185 165.501 87.268 152.301 78.7331C144.992 74.0049 137.282 67.2122 140.99 53.2116C141.528 51.1817 142.084 49.0627 142.697 46.9179C175.051 27.2338 211.563 13.9347 250.371 8.60883Z" fill="#57A03C"/>
<path d="M101.998 115.056C92.8895 119.704 85.1186 122.896 77.3131 118.915C74.0187 117.234 71.3801 114.243 71.0246 110.031C71.0003 109.742 70.9893 109.465 70.9893 109.2C72.7653 107.036 74.5634 104.89 76.4012 102.782C77.0577 102.505 77.7054 102.239 78.2994 101.943C83.5737 99.318 88.9923 97.2255 94.3284 94.7407C103.821 90.3209 114.394 88.3734 116.367 102.296C118.185 115.108 105.607 110.28 101.998 115.056Z" fill="#57A03C"/>
<path d="M499.823 395.694C498.6 384.883 498.794 370.934 509.399 364.949C517.331 360.472 517.542 371.656 518.575 377.921C520.345 388.689 520.33 402.684 509.295 408.695C500.451 413.509 502.339 401.422 499.823 395.694Z" fill="#57A03C"/>
<path d="M304.896 87.5764C306.542 96.7089 309.647 110.377 299.474 115.65C293.087 118.96 292.963 109.162 292.389 103.987C291.365 94.7952 287.409 80.7454 296.793 74.7115C304.875 69.513 301.547 84.8428 304.896 87.5764Z" fill="#57A03C"/>
<path d="M286.82 109.318C287.758 115.349 286.695 119.986 281.596 121.876C278.124 123.162 275.639 121.897 274.782 117.208C273.711 111.356 275.211 106.378 279.412 103.548C283.91 100.518 285.721 104.446 286.82 109.318Z" fill="#57A03C"/>
<path d="M427.611 454.822C427.897 456.478 428.177 458.148 428.46 459.82C429.763 467.537 431.113 475.516 432.845 483.002C434.845 491.651 441.923 500.235 452.763 498.677C481.115 494.016 494.456 456.541 491.161 432.793C489.143 417.611 486.996 405.685 484.191 394.113C475.177 356.881 477.872 328.286 492.669 304.121C499.885 292.338 496.969 277.296 485.89 269.132C470.282 257.633 455.197 245.777 443.798 236.734C443.315 236.349 442.751 235.98 442.154 235.591C438.836 233.42 433.82 230.14 438.659 220.22C440.55 216.34 442.569 214.289 445.013 213.767C448.132 213.102 450.647 215.198 452.672 216.886C453.137 217.275 453.605 217.665 454.082 218.023C457.876 220.876 461.696 223.828 465.39 226.682C469.456 229.822 473.657 233.067 477.828 236.185C481.533 239.185 485.591 240.444 489.966 239.971C496.185 239.314 502.946 235.139 508.053 228.809C511.873 224.076 513.584 219.129 513.007 214.504C512.47 210.21 509.895 206.222 505.558 202.973C504.519 202.191 503.471 201.416 502.419 200.637C497.284 196.83 491.971 192.894 487.092 188.236C486.521 187.69 485.542 187.194 484.503 186.664C481.239 185.005 475.776 182.228 478.713 173.554C480.123 169.385 482.109 167.012 484.779 166.303C488.889 165.215 492.669 168.562 495.705 171.254C499.76 174.853 504.213 176.546 507.926 175.907C522.638 173.37 530.214 177.556 542.865 187.039L543.127 187.26C546.618 190.66 550.164 191.959 553.669 191.131C554.273 192.784 554.851 194.449 555.426 196.116C555.27 196.159 555.114 196.2 554.957 196.239C551.276 197.134 545.62 196.97 539.58 191.154C527.722 182.285 521.583 178.896 508.822 181.098C503.442 182.03 497.546 179.929 492.207 175.196C490.566 173.739 487.502 171.028 486.131 171.395C485.534 171.553 484.581 172.649 483.703 175.245C482.229 179.597 483.69 180.342 486.892 181.971C488.224 182.648 489.6 183.346 490.729 184.426C495.372 188.856 500.549 192.694 505.556 196.404C506.615 197.189 507.669 197.973 508.718 198.756C514.225 202.885 517.515 208.104 518.234 213.853C518.992 219.929 516.891 226.243 512.153 232.117C506.187 239.511 498.101 244.409 490.523 245.21C484.703 245.834 479.344 244.19 474.593 240.342C470.469 237.261 466.25 234.002 462.17 230.852C458.488 228.009 454.679 225.067 450.914 222.235C450.369 221.824 449.832 221.377 449.3 220.933C448.274 220.08 446.735 218.797 446.116 218.918C446.007 218.942 444.997 219.244 443.393 222.531C440.59 228.274 442.076 229.248 445.036 231.182C445.709 231.621 446.402 232.075 447.072 232.605C458.437 241.622 473.476 253.441 489.016 264.889C502.312 274.689 505.816 292.737 497.161 306.873C483.143 329.764 480.65 357.092 489.315 392.872C492.121 404.475 494.368 416.933 496.382 432.084C498.319 446.052 495.222 462.531 488.094 476.157C479.954 491.716 467.693 501.562 453.568 503.883C452.449 504.047 451.356 504.122 450.291 504.122C438.465 504.122 430.104 494.528 427.712 484.189C425.944 476.549 424.581 468.49 423.264 460.698C422.974 458.964 422.68 457.237 422.384 455.518L422.348 455.119C422.114 441.884 415.792 429.148 405.437 421.049C391.138 409.866 388.847 389.203 387.822 370.711C387.433 363.651 384.93 358.066 381.289 356.134C378.595 354.7 375.19 355.194 371.173 357.596C359.912 364.334 346.763 364.687 333.145 358.616C314.081 350.115 297.526 330.031 293.785 310.859C289.446 281.196 296.732 254.27 316.691 225.997C329.437 207.941 353.826 203.01 373.417 214.53C380.876 218.914 389.98 216.649 396.305 213.971C412.299 207.208 428.538 190.318 431.763 177.092C432.563 173.812 432.529 171.737 432.228 170.889C429.192 162.372 421.216 156.356 411.414 155.194C401.88 154.068 393.031 157.835 388.328 165.036C380.007 177.782 364.75 181.178 352.053 173.111C344.144 168.084 338.075 166.324 333.516 167.721C327.354 169.609 322.815 177.533 317.898 188.846C317.293 190.238 316.763 191.944 316.202 193.748C314.676 198.671 313.097 203.758 309.062 205.092C306.834 205.827 304.376 205.225 301.748 203.304C292.377 196.451 285.875 183.939 291.588 173.28C306.738 144.998 317.189 121.453 324.477 99.1855C325.228 96.8958 327.82 93.5358 330.545 93.4578C349.705 92.9183 354.057 73.8024 358.264 55.318C359.556 49.6389 360.777 44.2748 362.418 39.671C364.506 33.8159 363.456 31.811 360.312 29.5382C359.489 28.9435 358.796 28.6675 358.4 28.7668C357.954 28.8868 356.97 29.6022 355.4 33.0924C354.166 35.8231 352.938 38.5596 351.712 41.2968C349.367 46.5285 347.021 51.7623 344.634 56.9615C344.284 57.7226 343.955 58.6021 343.606 59.5339C342.183 63.3406 340.036 69.0978 334.147 67.7626C327.121 66.1684 324.301 57.8234 325.215 50.779C326.465 41.1636 329.753 24.782 338.317 10.3391C340.169 10.6674 342.011 11.0221 343.85 11.3857C335.011 25.3767 331.68 41.9114 330.442 51.4568C329.832 56.1593 331.52 61.7648 335.31 62.6245C336.409 62.874 337.13 61.809 338.673 57.6887C339.039 56.7091 339.418 55.6971 339.847 54.7616C342.227 49.5793 344.567 44.3609 346.906 39.1418C348.134 36.3994 349.363 33.6606 350.596 30.9263C351.998 27.8181 353.862 24.5259 357.045 23.6765C359.061 23.1385 361.197 23.6765 363.399 25.2693C368.904 29.2482 370.057 33.9359 367.38 41.4418C365.845 45.7498 364.657 50.9659 363.402 56.4861C359.203 74.9263 353.984 97.8533 331.021 98.713C330.553 99.0538 329.732 100.066 329.486 100.824C322.099 123.393 311.531 147.208 296.23 175.767C291.941 183.775 297.323 193.543 304.859 199.052C305.967 199.863 306.92 200.253 307.408 200.089C308.868 199.608 310.254 195.143 311.171 192.187C311.749 190.326 312.347 188.401 313.066 186.745C318.722 173.734 323.857 165.171 331.974 162.683C338.181 160.78 345.46 162.681 354.877 168.666C365.031 175.116 377.241 172.379 383.917 162.156C389.722 153.268 400.488 148.592 412.034 149.964C423.836 151.363 433.477 158.706 437.192 169.126C437.952 171.278 437.849 174.375 436.883 178.338C433.253 193.214 415.97 211.376 398.356 218.825C387.69 223.336 378.142 223.421 370.745 219.072C353.535 208.953 332.147 213.235 320.993 229.035C301.862 256.135 294.864 281.853 298.974 309.973C302.395 327.466 317.675 345.95 335.289 353.802C343.645 357.528 356.184 360.425 368.468 353.075C375.579 348.822 380.711 349.861 383.761 351.481C389.099 354.316 392.584 361.394 393.082 370.42C394.043 387.755 396.121 407.075 408.682 416.9C420.224 425.926 427.289 440.089 427.611 454.822Z" fill="#57A03C"/>
<path d="M83.4439 347.782C91.903 347.782 98.7657 356.827 103.507 363.072C108.295 369.381 104.491 375 101.716 379.103C100.656 380.668 99.6562 382.143 99.1609 383.485C91.7396 403.52 95.4941 446.435 114.134 461.483C137.277 478.614 143.672 507.594 146.642 530.942C144.698 529.802 142.769 528.641 140.856 527.457C137.782 505.96 131.218 480.684 110.912 465.65C89.8775 448.672 86.31 403.012 94.22 381.655C94.9362 379.715 96.1646 377.903 97.3503 376.151C100.453 371.568 101.578 369.247 99.3118 366.258C94.7963 360.309 87.9749 351.328 81.3617 353.377C67.1073 357.811 50.8015 351.883 32.9044 335.764C25.0717 328.708 17.0535 321.485 8.48992 314.846C8.26543 312.503 8.07112 310.152 7.90552 307.794C18.0795 315.32 27.3769 323.693 36.4307 331.849C52.8506 346.639 67.4421 352.187 79.7984 348.347C81.0423 347.96 82.2597 347.782 83.4439 347.782ZM180.309 547.74C181.254 538.541 183.922 529.28 188.305 520.023C204.532 485.754 218.408 452.639 228.438 424.256C231.399 415.874 229.054 385.42 220.558 375.644C218.06 372.77 215.978 372.801 214.638 373.074C201.684 375.701 188.679 366.408 179.18 359.626L177.921 358.731C166.696 350.749 157.258 349.578 145.337 354.699C135.146 359.074 122.569 356.389 111.697 347.516C110.559 346.589 109.409 345.624 108.24 344.645C98.4212 336.398 88.2686 327.871 75.3742 331.969C68.3651 334.193 65.2657 326.856 64.0977 324.094C60.9298 316.6 60.6951 308.478 63.4698 302.363C65.6897 297.474 69.7319 293.94 75.1586 292.149C76.5504 291.689 77.979 291.237 79.4304 290.78C90.9999 287.124 102.967 283.341 107.854 272.516C114.685 257.389 122.093 241.672 129.257 226.472C136.904 210.252 144.81 193.478 152.204 177.027C154.869 171.107 157.167 162.489 153.004 155.058C149.777 149.301 144.956 147.887 138.672 150.851C130.439 154.735 123.21 153.79 115.922 147.876C115.448 147.494 114.968 147.071 114.475 146.638C110.884 143.469 110.04 143.407 108.596 144.838C106.576 146.842 106.933 149.393 107.677 153.391C107.895 154.554 108.119 155.756 108.246 156.966C108.433 158.726 108.999 160.658 109.601 162.704C111.216 168.191 113.228 175.022 107.145 180.257C96.8211 189.14 86.3159 191.562 78.3235 186.898C77.5374 186.442 76.7476 185.99 75.9579 185.541C66.7974 180.322 56.4144 174.407 62.4173 159.166C65.7876 150.61 65.7456 144.285 62.2863 139.261C59.3077 134.935 55.9602 135.047 50.987 136.831C52.3405 134.701 53.7183 132.588 55.1263 130.498C59.1766 130.168 63.2586 131.387 66.6252 136.275C71.1075 142.781 71.3335 150.901 67.3192 161.098C63.1909 171.58 68.6183 175.295 78.5678 180.963C79.3701 181.423 80.1775 181.882 80.9798 182.349C89.0988 187.086 98.7031 180.568 103.71 176.264C107.044 173.391 106.199 169.806 104.549 164.19C103.905 162.009 103.242 159.752 103.006 157.517C102.903 156.517 102.708 155.468 102.499 154.359C101.733 150.265 100.784 145.168 104.889 141.096C110.196 135.835 115.246 140.294 117.959 142.685C118.396 143.069 118.821 143.446 119.24 143.786C124.926 148.398 130.064 149.086 136.423 146.087C145.137 141.977 153.054 144.366 157.6 152.482C161.745 159.879 161.542 169.112 157.011 179.187C149.596 195.683 141.679 212.477 134.024 228.719C126.868 243.9 119.468 259.598 112.655 274.684C106.8 287.656 93.1005 291.985 81.0158 295.802C79.5879 296.254 78.1807 296.7 76.8102 297.152C72.7599 298.489 69.885 300.974 68.2665 304.542C66.0901 309.337 66.3455 315.88 68.9502 322.042C71.3497 327.718 72.754 327.269 73.78 326.949C89.4263 321.977 101.739 332.306 111.629 340.607C112.777 341.573 113.909 342.523 115.028 343.435C118.52 346.285 130.875 355.173 143.257 349.856C156.928 343.987 168.207 345.356 180.974 354.436L182.238 355.34C190.952 361.561 202.891 370.069 213.591 367.91C216.396 367.341 220.569 367.626 224.533 372.188C234.774 383.969 236.828 416.323 233.406 426.009C223.319 454.56 209.37 487.85 193.067 522.279C188.701 531.498 186.149 540.706 185.416 549.826C183.703 549.15 182.004 548.449 180.309 547.74Z" fill="#57A03C"/>
<path d="M146.043 44.9204C145.152 47.7762 144.395 50.6386 143.68 53.3442L143.534 53.8866C140.525 65.2545 145.435 71.1566 153.731 76.5207C164.322 83.3679 177.777 95.5998 181.729 114.988C183.255 122.474 188.457 127.566 193.961 132.956C194.885 133.86 195.804 134.758 196.7 135.667C201.319 140.335 204.941 142.334 207.785 141.769C211.139 141.101 214.551 136.57 217.927 128.295C223.415 114.848 229.699 101.291 235.775 88.1822C239.309 80.5644 242.645 73.3661 245.829 66.2076C254.196 47.3846 254.84 28.9687 247.695 8.98061C249.468 8.72006 251.244 8.4676 253.027 8.24017C260.278 29.1475 259.461 48.5093 250.642 68.3472C247.441 75.5447 244.097 82.7599 240.555 90.3991C234.503 103.452 228.247 116.951 222.805 130.287C218.604 140.582 214.157 145.874 208.811 146.936C208.14 147.068 207.463 147.135 206.78 147.135C202.599 147.135 198.146 144.622 192.954 139.369C192.079 138.482 191.177 137.604 190.277 136.721C184.445 131.011 178.416 125.109 176.566 116.04C172.98 98.446 160.614 87.2445 150.869 80.9457C142.94 75.8171 134.361 67.9549 138.443 52.5368L138.585 51.9973C138.848 51.0022 139.117 49.9872 139.395 48.9597C141.591 47.5819 143.808 46.2379 146.043 44.9204Z" fill="#57A03C"/>
<path d="M106.097 94.0988C103.337 94.0988 99.7721 95.1116 95.4414 97.129C93.1744 98.1859 90.8714 99.1781 88.6465 100.141C85.6133 101.45 82.4771 102.805 79.4756 104.301C78.9016 104.584 78.2833 104.846 77.6547 105.113C74.4405 106.464 73.4234 107.126 73.6493 109.811C73.9761 113.7 76.8348 115.715 78.5093 116.57C84.6351 119.696 90.7029 117.823 100.328 112.948C102.247 110.871 105.142 110.299 107.72 109.79C112.285 108.886 114.577 108.432 113.759 102.665C113.194 98.6644 111.833 96.0544 109.717 94.904C108.725 94.3697 107.518 94.0988 106.097 94.0988ZM68.6746 112.047C72.5718 107.171 76.6221 102.425 80.8248 97.826C82.748 96.9487 84.6712 96.1177 86.5562 95.3037C88.7502 94.3557 91.0172 93.3775 93.2164 92.3515C101.486 88.5007 107.705 87.8206 112.228 90.2745C115.892 92.2603 118.161 96.1818 118.976 101.925C120.495 112.633 113.137 114.088 108.741 114.957C106.796 115.341 104.781 115.739 104.098 116.645L103.732 117.127L103.195 117.4C96.9841 120.571 90.8611 123.343 84.7441 123.343C81.8692 123.343 78.995 122.731 76.1157 121.261C72.1935 119.262 69.5548 115.963 68.6746 112.047Z" fill="#57A03C"/>
<path d="M502.398 395.029C503.143 396.899 503.507 399.095 503.857 401.227C504.177 403.151 504.769 406.731 505.602 407.137C505.758 407.212 506.49 407.223 508.035 406.378C515.676 402.219 518.347 392.786 515.972 378.346C515.832 377.502 515.707 376.57 515.578 375.599C515.194 372.723 514.477 367.366 512.976 366.618C512.589 366.424 511.714 366.665 510.693 367.242C503.52 371.292 500.804 380.382 502.398 395.029ZM505.802 412.444C504.906 412.444 504.072 412.252 503.291 411.873C500.015 410.273 499.326 406.111 498.661 402.087C498.337 400.126 498.002 398.095 497.41 396.753L497.249 396.387L497.205 395.989C496.491 389.67 494.315 370.438 508.105 362.656C510.818 361.121 513.249 360.87 515.326 361.903C519.331 363.897 520.11 369.742 520.797 374.901C520.924 375.817 521.038 376.695 521.172 377.493C524.634 398.529 517.307 407.329 510.556 411.008C508.793 411.966 507.219 412.444 505.802 412.444Z" fill="#57A03C"/>
<path d="M299.408 76.3208C299.194 76.3878 298.81 76.5438 298.216 76.9251C291.709 81.1108 293.125 90.643 294.371 99.0506C294.615 100.684 294.845 102.249 295.007 103.696C295.068 104.257 295.126 104.87 295.185 105.516C295.378 107.569 295.887 113.022 297.081 113.675C297.115 113.697 297.488 113.714 298.265 113.31C305.598 109.509 304.548 100.263 302.563 89.4661L302.443 88.8044C301.054 87.0078 300.727 84.2374 300.386 81.3294C300.213 79.8515 299.9 77.2055 299.408 76.3208ZM297.144 118.95C296.061 118.95 295.196 118.649 294.555 118.298C290.902 116.304 290.369 110.594 289.941 106.006C289.883 105.394 289.829 104.81 289.77 104.277C289.617 102.89 289.393 101.39 289.159 99.8241C287.824 90.8329 285.999 78.52 295.367 72.4935C297.751 70.9611 299.867 70.6108 301.656 71.4572C304.699 72.8932 305.167 76.8684 305.619 80.7134C305.805 82.3128 306.12 84.9874 306.613 85.5851L307.367 86.2004L307.488 87.1087L307.745 88.5115C309.472 97.898 312.081 112.085 300.688 117.987C299.324 118.696 298.143 118.95 297.144 118.95Z" fill="#57A03C"/>
<path d="M282.245 105.119C282.11 105.119 281.666 105.205 280.884 105.734C276.605 108.616 276.847 113.864 277.371 116.733C277.644 118.213 278.124 119.28 278.664 119.586C279.189 119.883 280.152 119.603 280.679 119.405C283.026 118.535 285.28 116.715 284.231 109.808C283.26 105.555 282.323 105.139 282.283 105.124L282.245 105.119ZM279.243 124.987C278.088 124.987 277.021 124.712 276.057 124.164C274.07 123.035 272.77 120.853 272.191 117.683C270.9 110.642 272.996 104.693 277.94 101.364C280.191 99.8479 282.307 99.4637 284.229 100.226C287.386 101.481 288.645 105.433 289.391 108.736L289.424 108.912C290.676 116.99 288.349 122.183 282.51 124.346C281.354 124.774 280.263 124.987 279.243 124.987Z" fill="#57A03C"/>
<path d="M505.812 407.171C505.708 407.171 505.638 407.156 505.601 407.138C504.768 406.731 504.176 403.151 503.857 401.228C503.507 399.096 503.142 396.9 502.397 395.029C500.803 380.383 503.519 371.293 510.693 367.243C511.48 366.797 512.178 366.554 512.636 366.554C512.773 366.554 512.887 366.574 512.976 366.618C514.476 367.366 515.193 372.724 515.577 375.6C515.707 376.571 515.831 377.503 515.972 378.347C518.347 392.786 515.676 402.22 508.035 406.379C506.853 407.023 506.148 407.171 505.812 407.171Z" fill="#57A03C"/>
<path d="M444.235 503.237C435.639 500.632 429.672 492.658 427.711 484.189C425.943 476.549 424.58 468.49 423.263 460.698C422.973 458.964 422.679 457.237 422.383 455.518L422.347 455.119C422.113 441.884 415.791 429.148 405.435 421.049C395.375 413.179 391.256 400.615 389.345 387.417C391.03 386.773 392.719 386.11 394.388 385.433C396.073 397.979 399.692 409.871 408.681 416.9C420.223 425.926 427.288 440.089 427.61 454.822C427.896 456.478 428.176 458.148 428.459 459.82C429.762 467.537 431.112 475.516 432.844 483.002C434.678 490.927 440.776 498.802 450.127 498.862C448.185 500.347 446.22 501.806 444.235 503.237ZM487.47 464.224C491.188 453.505 492.451 442.096 491.16 432.793C489.142 417.611 486.995 405.685 484.19 394.113C478.107 368.987 477.356 347.794 482.059 329.239C484.77 326.69 487.418 324.095 490.028 321.439C482.591 341.243 482.412 364.378 489.314 392.872C492.12 404.475 494.367 416.933 496.381 432.084C497.37 439.212 497.046 446.994 495.548 454.715C492.928 457.948 490.233 461.122 487.47 464.224Z" fill="#57A03C"/>
<path d="M188.57 533.738C186.94 533.073 185.301 532.385 183.689 531.689C184.923 527.805 186.462 523.913 188.304 520.023C204.531 485.754 218.407 452.638 228.437 424.255C229.972 419.906 230.082 409.611 228.64 399.347C230.473 399.747 232.319 400.132 234.168 400.495C235.443 411.052 235.082 421.257 233.405 426.008C223.318 454.56 209.369 487.849 193.066 522.279C191.255 526.101 189.757 529.923 188.57 533.738ZM142.87 509.64C140.624 508.157 138.398 506.64 136.202 505.093C131.837 490.166 124.41 475.643 110.911 465.65C89.8765 448.671 86.309 403.011 94.219 381.655C94.9351 379.715 96.1635 377.903 97.3493 376.15C100.452 371.568 101.577 369.246 99.3108 366.257C95.242 360.899 89.3031 353.081 83.3318 353.081C82.6745 353.081 82.0172 353.174 81.3607 353.376C78.307 354.327 75.1553 354.801 71.9168 354.801C60.0426 354.801 46.9658 348.43 32.9034 335.763C30.8403 333.904 28.764 332.036 26.6693 330.166C26.238 327.489 25.8479 324.804 25.4983 322.104C29.2064 325.341 32.8371 328.613 36.4297 331.849C49.4852 343.608 61.3866 349.526 71.9242 349.526C74.6409 349.526 77.2655 349.133 79.7974 348.346C81.0413 347.96 82.2587 347.781 83.4429 347.781C91.902 347.781 98.7646 356.827 103.506 363.072C108.294 369.38 104.49 375 101.715 379.103C100.655 380.668 99.6552 382.143 99.1599 383.485C91.7386 403.52 95.493 446.435 114.133 461.482C130.567 473.647 138.557 491.786 142.87 509.64ZM129.085 356.142C123.206 354.947 117.231 352.034 111.696 347.515C110.558 346.589 109.407 345.623 108.239 344.644C100.172 337.87 91.8821 330.909 82.0334 330.909C79.8909 330.909 77.6762 331.235 75.3732 331.969C74.4716 332.253 73.6362 332.381 72.8597 332.381C67.5986 332.383 65.1145 326.503 64.0966 324.093C60.9288 316.6 60.694 308.478 63.4688 302.363C64.3196 300.488 65.4384 298.813 66.8 297.359C67.896 298.764 69.0051 300.159 70.1276 301.542C69.3879 302.435 68.7667 303.437 68.2654 304.542C66.089 309.337 66.3444 315.88 68.9492 322.042C70.7539 326.31 71.9956 327.115 72.9348 327.115C73.2461 327.115 73.5243 327.027 73.779 326.949C76.609 326.048 79.3359 325.651 81.9525 325.651C86.9817 325.651 91.6245 327.118 95.9273 329.328C106.256 339.059 117.342 348.033 129.085 356.142Z" fill="#57A03C"/>
<path d="M505.802 412.444C504.906 412.444 504.072 412.252 503.291 411.873C500.015 410.273 499.326 406.111 498.661 402.087C498.337 400.126 498.002 398.095 497.41 396.753L497.249 396.387L497.205 395.989C496.491 389.67 494.315 370.438 508.105 362.656C509.728 361.74 511.246 361.28 512.652 361.28C513.597 361.28 514.49 361.487 515.326 361.903C519.331 363.897 520.11 369.742 520.797 374.901C520.924 375.817 521.038 376.695 521.172 377.493C524.634 398.529 517.307 407.329 510.556 411.008C508.793 411.966 507.219 412.444 505.802 412.444ZM512.636 366.554C512.179 366.554 511.48 366.797 510.693 367.242C503.52 371.292 500.804 380.382 502.398 395.029C503.143 396.899 503.507 399.095 503.857 401.227C504.177 403.151 504.769 406.731 505.602 407.137C505.639 407.156 505.708 407.17 505.812 407.17C506.148 407.17 506.854 407.022 508.035 406.378C515.676 402.219 518.347 392.786 515.972 378.346C515.832 377.502 515.707 376.57 515.578 375.6C515.194 372.723 514.477 367.366 512.976 366.618C512.888 366.574 512.773 366.554 512.636 366.554Z" fill="#57A03C"/>
<path fill-rule="evenodd" clip-rule="evenodd" d="M22.5995 379.723C15.4351 359.016 10.6245 337.27 8.47677 314.836C10.3926 316.322 12.279 317.833 14.1441 319.367C14.7749 340.067 17.6689 360.273 22.5995 379.723ZM7.63403 303.703C7.12544 294.578 7.05699 285.353 7.44855 276.044C7.45149 275.975 7.45444 275.902 7.45812 275.834C7.45812 275.824 7.45885 275.814 7.45885 275.805C7.4618 275.743 7.464 275.679 7.46695 275.618C7.46695 275.609 7.46769 275.593 7.46842 275.582C7.47137 275.525 7.47431 275.462 7.47652 275.403C7.47725 275.385 7.47799 275.364 7.47946 275.347C7.48093 275.292 7.48314 275.242 7.48609 275.188C7.48756 275.162 7.48829 275.135 7.48977 275.108C7.49197 275.063 7.49418 275.016 7.49639 274.972C7.49933 274.9 7.50228 274.829 7.50596 274.756C7.5641 273.518 7.63108 272.277 7.70763 271.036C7.05036 282.047 7.03638 292.94 7.63403 303.703ZM562.045 218.264C559.483 210.874 556.622 203.625 553.471 196.519C553.996 196.448 554.491 196.353 554.958 196.239C555.114 196.2 555.277 196.158 555.433 196.113C556.672 199.707 557.832 203.326 558.93 206.983C560.049 210.711 561.075 214.476 562.045 218.264ZM69.5009 142.539C68.9202 140.299 67.9619 138.214 66.6253 136.274C63.5943 131.873 59.9849 130.445 56.3394 130.445C55.9339 130.445 55.5276 130.463 55.1228 130.497C59.3961 124.154 63.9175 118 68.6751 112.046C69.5554 115.962 72.1933 119.262 76.117 121.261C78.9963 122.731 81.8705 123.343 84.7454 123.343C84.8727 123.343 85.0022 123.341 85.1296 123.339C79.6536 129.495 74.4322 135.908 69.5009 142.539ZM80.8319 97.8254C98.0496 78.9826 117.765 62.5252 139.399 48.9485C139.121 49.979 138.851 50.9976 138.586 51.9971L138.444 52.5366C135.852 62.3228 138.363 69.0662 142.572 73.9975C133.323 80.0005 124.422 86.5466 115.947 93.5742C114.932 92.1698 113.694 91.0687 112.229 90.2746C110.464 89.317 108.439 88.8357 106.133 88.8357C102.536 88.8357 98.2572 90.0045 93.2177 92.3516C91.0184 93.3776 88.7515 94.3558 86.5574 95.3038C84.6747 96.1171 82.7537 96.9473 80.8319 97.8254ZM363.244 36.8727C360.38 36.169 357.49 35.5059 354.588 34.8906C354.857 34.2914 355.128 33.6916 355.4 33.0925C356.971 29.6023 357.955 28.8869 358.401 28.7669C358.456 28.7529 358.516 28.7455 358.582 28.7455C358.989 28.7455 359.604 29.0289 360.313 29.5382C362.894 31.4004 364.065 33.0858 363.244 36.8727ZM257.787 31.2303C257.335 23.7119 255.749 16.0867 253.027 8.23562C264.709 6.74886 276.604 5.98413 288.641 5.98413C288.649 5.98413 288.649 5.98413 288.654 5.98413H288.657C294.426 5.98413 300.242 6.16078 306.077 6.5148C306.988 6.56485 307.905 6.62815 308.824 6.69218C309.357 6.73487 309.889 6.7702 310.421 6.81215C311.872 6.9255 313.342 7.03885 314.791 7.1809C328.939 8.47629 342.758 10.8051 356.169 14.0833C352.095 13.0919 348.006 12.1858 343.859 11.3718C342.023 11.0038 340.171 10.6637 338.32 10.3311C334.364 17.0075 331.53 24.0939 329.507 30.7424C326.888 30.4237 324.253 30.1477 321.606 29.8996C320.158 29.7583 318.688 29.645 317.237 29.5316C315.786 29.4249 314.331 29.3123 312.892 29.2343C307.051 28.8802 301.247 28.7028 295.47 28.7028C282.721 28.7028 270.133 29.5596 257.787 31.2303ZM357.41 14.3946L357.399 14.388C357.405 14.3946 357.405 14.3946 357.41 14.3946ZM356.602 14.1893C356.566 14.1827 356.533 14.1753 356.501 14.1672L356.498 14.1665L356.495 14.1657C356.464 14.1584 356.434 14.1503 356.4 14.14C356.429 14.1503 356.462 14.1584 356.495 14.1657L356.498 14.1665L356.501 14.1672C356.536 14.1753 356.571 14.1827 356.602 14.1893ZM356.371 14.1392H356.371C356.345 14.1304 356.32 14.1223 356.295 14.1157H356.294L356.292 14.1149L356.289 14.1142L356.286 14.1135L356.283 14.1127L356.28 14.112L356.278 14.1113H356.277L356.275 14.1105L356.272 14.1098C356.248 14.1032 356.223 14.0973 356.198 14.0914C356.223 14.0973 356.248 14.1032 356.272 14.1098L356.275 14.1105L356.277 14.1113H356.278L356.28 14.112L356.283 14.1127L356.286 14.1135L356.289 14.1142L356.292 14.1149L356.294 14.1157H356.295C356.32 14.1223 356.345 14.1304 356.371 14.1392H356.371Z" fill="#FFFBDE"/>
<path d="M553.471 196.519C552.706 194.789 551.927 193.068 551.127 191.359C551.29 191.367 551.453 191.373 551.616 191.373C552.295 191.373 552.982 191.292 553.669 191.131C554.271 192.782 554.858 194.449 555.432 196.113C555.276 196.158 555.114 196.199 554.958 196.238C554.49 196.353 553.995 196.448 553.471 196.519ZM368.341 38.1731C366.65 37.7234 364.95 37.2899 363.244 36.8725C364.064 33.0857 362.893 31.4002 360.312 29.5381C359.603 29.0288 358.988 28.7454 358.581 28.7454C358.515 28.7454 358.455 28.7528 358.401 28.7668C357.955 28.8867 356.971 29.6021 355.4 33.0923C355.128 33.6915 354.857 34.2913 354.587 34.8904C352.826 34.5195 351.063 34.1618 349.293 33.821C349.726 32.8517 350.16 31.8889 350.596 30.9262C351.998 27.818 353.862 24.5258 357.046 23.6764C357.55 23.5417 358.061 23.4777 358.581 23.4777C360.132 23.4777 361.748 24.0724 363.4 25.2692C368.058 28.6394 369.6 32.5116 368.341 38.1731ZM334.801 31.4216C333.044 31.1809 331.275 30.9476 329.507 30.7422C331.529 24.0938 334.363 17.0074 338.32 10.3309C340.171 10.6636 342.023 11.0037 343.858 11.3717C339.779 17.8214 336.871 24.8232 334.801 31.4216Z" fill="#57A03C"/>
<path d="M14.1443 319.367C12.2793 317.833 10.3928 316.322 8.47698 314.837C8.25323 312.492 8.05672 310.139 7.89111 307.782C9.9689 309.319 12.0091 310.89 14.0185 312.486C14.0325 314.787 14.0752 317.08 14.1443 319.367ZM64.8929 148.922C65.0637 145.201 64.1951 142.034 62.2866 139.26C60.5011 136.669 58.583 135.669 56.2623 135.669C54.7079 135.669 52.9723 136.118 50.974 136.835C52.3305 134.701 53.7105 132.593 55.1215 130.497C55.1222 130.497 55.1222 130.497 55.123 130.497C55.5278 130.464 55.9341 130.445 56.3396 130.445C59.9851 130.445 63.5946 131.873 66.6255 136.274C67.9621 138.214 68.9204 140.299 69.5011 142.539C67.9327 144.648 66.4025 146.767 64.8929 148.922Z" fill="#57A03C"/>
<path d="M142.571 73.9974C138.361 69.0661 135.85 62.3227 138.442 52.5366L138.584 51.9971C138.849 50.9975 139.119 49.9789 139.398 48.9485C139.398 48.9485 139.398 48.9463 139.4 48.9463C141.594 47.5669 143.814 46.2171 146.05 44.9011C145.154 47.762 144.396 50.631 143.679 53.344L143.533 53.8864C141.472 61.6823 143.131 66.9066 147.049 71.1483C145.546 72.086 144.056 73.031 142.571 73.9974ZM252.517 31.995C252.118 24.4832 250.51 16.844 247.693 8.97155C249.463 8.70953 251.245 8.46223 253.026 8.23553C255.747 16.0867 257.333 23.7118 257.786 31.2303C256.02 31.4709 254.273 31.719 252.517 31.995Z" fill="#57A03C"/>
<path d="M84.7448 123.343C81.8699 123.343 78.9958 122.731 76.1165 121.261C72.1927 119.262 69.5548 115.962 68.6746 112.046C68.6746 112.046 68.6746 112.046 68.6746 112.044C72.5725 107.168 76.6258 102.426 80.8262 97.8254C80.8285 97.8254 80.8285 97.8254 80.8314 97.8254C82.7531 96.9473 84.6742 96.1171 86.5569 95.3038C88.751 94.3558 91.0179 93.3776 93.2171 92.3516C98.2567 90.0044 102.536 88.8356 106.132 88.8356C108.438 88.8356 110.464 89.317 112.229 90.2746C113.693 91.0687 114.931 92.1698 115.947 93.5741C114.586 94.7047 113.241 95.8389 111.901 96.9937C111.297 96.0641 110.567 95.3663 109.718 94.9041C108.726 94.3698 107.519 94.0989 106.098 94.0989C103.338 94.0989 99.7729 95.1117 95.4421 97.1291C93.1752 98.186 90.8722 99.1782 88.6472 100.141C85.6141 101.45 82.4779 102.805 79.4764 104.301C78.9023 104.584 78.284 104.846 77.6555 105.113C74.4413 106.464 73.4241 107.126 73.6501 109.811C73.9768 113.7 76.8355 115.715 78.51 116.57C80.5613 117.616 82.6104 118.102 84.786 118.103C86.6997 118.103 88.712 117.728 90.9185 117.026C88.9563 119.104 87.0324 121.202 85.129 123.339C85.0017 123.341 84.8721 123.343 84.7448 123.343Z" fill="#57A03C"/>
<path d="M288.536 11.1738C181.918 11.1738 85.2858 71.7799 39.0638 169.112C24.5193 199.725 15.8225 232.537 13.2155 266.643C12.9851 269.66 12.8144 272.392 12.6915 274.998C5.68309 425.284 117.771 551.994 267.868 563.468C417.973 574.944 548.012 466.737 563.927 317.134C564.203 314.527 564.444 311.801 564.677 308.797C567.283 274.692 563.672 240.937 553.951 208.471C521.413 99.7155 427.354 22.7352 314.315 12.3485C312.866 12.2072 311.437 12.1012 310.023 11.9879C308.607 11.8819 307.197 11.7751 305.8 11.6971C300.026 11.3438 294.262 11.1738 288.536 11.1738ZM289.31 574.675C281.926 574.675 274.513 574.392 267.079 573.826C192.17 568.1 123.541 533.927 73.8363 477.609C24.2293 421.403 -1.16925 349.276 2.31654 274.513C2.44387 271.801 2.62125 268.969 2.85972 265.854C5.56533 230.471 14.5897 196.423 29.6825 164.657C53.9792 113.495 92.5901 70.9644 141.337 41.6627C191.156 11.7185 248.238 -2.22837 306.392 1.3325C307.826 1.40316 309.316 1.52386 310.809 1.63721C312.304 1.75056 313.813 1.8639 315.304 2.01258C373.297 7.33621 427.587 29.8003 472.268 66.9707C515.982 103.337 547.672 151.238 563.905 205.493C573.995 239.182 577.732 274.209 575.035 309.589C574.795 312.695 574.539 315.522 574.256 318.232C566.334 392.657 530.27 460.085 472.704 508.098C420.743 551.436 356.331 574.675 289.31 574.675Z" fill="#57A03C"/>
<path d="M14.6582 376.277C67.3638 395.776 463.788 329.981 557.378 179.157" stroke="#FBD927" stroke-width="9" stroke-linecap="round" stroke-linejoin="round"/>
<path d="M6.86694 343.561C107.283 358.686 449.409 253.13 507.478 97.9443" stroke="#FBD927" stroke-width="9" stroke-linecap="round" stroke-linejoin="round"/>
<path d="M16.8577 380.172C68.6234 402.044 466.757 355.762 567.098 209.344" stroke="#FBD927" stroke-width="9" stroke-linecap="round" stroke-linejoin="round"/>
<path d="M8.20776 358.826C56.1447 388.153 456.57 411.095 577.572 281.229" stroke="#FBD927" stroke-width="9" stroke-linecap="round" stroke-linejoin="round"/>
<path d="M16.8997 375.021C66.5979 401.255 461.963 396.46 574.5 259.193" stroke="#FBD927" stroke-width="9" stroke-linecap="round" stroke-linejoin="round"/>
<path d="M34.3909 427.378C91.1424 451.742 453.077 451.063 575.853 291.558" stroke="#FBD927" stroke-width="9" stroke-linecap="round" stroke-linejoin="round"/>
<path d="M20.5852 402.147C77.336 426.511 455.748 428.832 578.524 269.327" stroke="#FBD927" stroke-width="9" stroke-linecap="round" stroke-linejoin="round"/>
<path d="M122.138 414.502C184.206 413.15 164.583 533.952 164.538 643.669" stroke="#FBD927" stroke-width="9" stroke-linecap="round" stroke-linejoin="round"/>
<path d="M12.0164 367.395C64.722 386.893 462.66 319.242 556.25 168.418" stroke="#FBD927" stroke-width="9" stroke-linecap="round" stroke-linejoin="round"/>
<path d="M8.15845 363.133C56.5885 391.639 458.402 396.937 577.172 265.028" stroke="#FBD927" stroke-width="9" stroke-linecap="round" stroke-linejoin="round"/>
<path d="M4.87598 363.586C53.3061 392.092 458.034 379.256 573.289 248.846" stroke="#FBD927" stroke-width="9" stroke-linecap="round" stroke-linejoin="round"/>
<path d="M12.1594 380.172C15.3044 379.83 55.1327 395.838 148.505 394.06C187.189 393.324 232.494 385.055 263.906 383.181C310.274 380.414 310.64 375.46 348.537 406.212C385.586 436.277 422.27 463.556 490.772 363.88C500.345 349.948 532.503 316.534 546.282 307.674" stroke="#FBD927" stroke-width="9" stroke-linecap="round" stroke-linejoin="round"/>
</svg>
